solid OpenSCAD_Model
  facet normal 1 0 0
    outer loop
      vertex 152.39999389648438 1 6
      vertex 152.39999389648438 0 6
      vertex 152.39999389648438 1 3
    endloop
  endfacet
  facet normal 1 0 0
    outer loop
      vertex 152.39999389648438 3.5 6
      vertex 152.39999389648438 2.5 6
      vertex 152.39999389648438 3.5 3
    endloop
  endfacet
  facet normal 1 0 0
    outer loop
      vertex 152.39999389648438 6 6
      vertex 152.39999389648438 5 6
      vertex 152.39999389648438 6 3
    endloop
  endfacet
  facet normal 1 0 0
    outer loop
      vertex 152.39999389648438 8.5 6
      vertex 152.39999389648438 7.5 6
      vertex 152.39999389648438 8.5 3
    endloop
  endfacet
  facet normal 1 0 0
    outer loop
      vertex 152.39999389648438 11 6
      vertex 152.39999389648438 10 6
      vertex 152.39999389648438 11 3
    endloop
  endfacet
  facet normal 1 0 0
    outer loop
      vertex 152.39999389648438 13.5 6
      vertex 152.39999389648438 12.5 6
      vertex 152.39999389648438 13.5 3
    endloop
  endfacet
  facet normal 1 0 0
    outer loop
      vertex 152.39999389648438 16 6
      vertex 152.39999389648438 15 6
      vertex 152.39999389648438 16 3
    endloop
  endfacet
  facet normal 1 0 0
    outer loop
      vertex 152.39999389648438 18.5 6
      vertex 152.39999389648438 17.5 6
      vertex 152.39999389648438 18.5 3
    endloop
  endfacet
  facet normal 1 0 0
    outer loop
      vertex 152.39999389648438 21 6
      vertex 152.39999389648438 20 6
      vertex 152.39999389648438 21 3
    endloop
  endfacet
  facet normal 1 0 0
    outer loop
      vertex 152.39999389648438 23.5 6
      vertex 152.39999389648438 22.5 6
      vertex 152.39999389648438 23.5 3
    endloop
  endfacet
  facet normal 1 0 0
    outer loop
      vertex 152.39999389648438 26 6
      vertex 152.39999389648438 25 6
      vertex 152.39999389648438 26 3
    endloop
  endfacet
  facet normal 1 0 0
    outer loop
      vertex 152.39999389648438 28.5 6
      vertex 152.39999389648438 27.5 6
      vertex 152.39999389648438 28.5 3
    endloop
  endfacet
  facet normal 1 0 0
    outer loop
      vertex 152.39999389648438 31 6
      vertex 152.39999389648438 30 6
      vertex 152.39999389648438 31 3
    endloop
  endfacet
  facet normal 1 0 0
    outer loop
      vertex 152.39999389648438 33.5 6
      vertex 152.39999389648438 32.5 6
      vertex 152.39999389648438 33.5 3
    endloop
  endfacet
  facet normal 1 0 0
    outer loop
      vertex 152.39999389648438 36 6
      vertex 152.39999389648438 35 6
      vertex 152.39999389648438 36 3
    endloop
  endfacet
  facet normal 1 0 0
    outer loop
      vertex 152.39999389648438 38.5 6
      vertex 152.39999389648438 37.5 6
      vertex 152.39999389648438 38.5 3
    endloop
  endfacet
  facet normal 1 0 0
    outer loop
      vertex 152.39999389648438 41 6
      vertex 152.39999389648438 40 6
      vertex 152.39999389648438 41 3
    endloop
  endfacet
  facet normal 1 0 0
    outer loop
      vertex 152.39999389648438 43.5 6
      vertex 152.39999389648438 42.5 6
      vertex 152.39999389648438 43.5 3
    endloop
  endfacet
  facet normal 1 0 0
    outer loop
      vertex 152.39999389648438 46 6
      vertex 152.39999389648438 45 6
      vertex 152.39999389648438 46 3
    endloop
  endfacet
  facet normal 1 0 0
    outer loop
      vertex 152.39999389648438 48.5 6
      vertex 152.39999389648438 47.5 6
      vertex 152.39999389648438 48.5 3
    endloop
  endfacet
  facet normal 1 0 0
    outer loop
      vertex 152.39999389648438 51 6
      vertex 152.39999389648438 50 6
      vertex 152.39999389648438 51 3
    endloop
  endfacet
  facet normal 1 0 0
    outer loop
      vertex 152.39999389648438 53.5 6
      vertex 152.39999389648438 52.5 6
      vertex 152.39999389648438 53.5 3
    endloop
  endfacet
  facet normal 1 0 0
    outer loop
      vertex 152.39999389648438 56 6
      vertex 152.39999389648438 55 6
      vertex 152.39999389648438 56 3
    endloop
  endfacet
  facet normal 1 0 0
    outer loop
      vertex 152.39999389648438 58.5 6
      vertex 152.39999389648438 57.5 6
      vertex 152.39999389648438 58.5 3
    endloop
  endfacet
  facet normal 1 0 0
    outer loop
      vertex 152.39999389648438 61 6
      vertex 152.39999389648438 60 6
      vertex 152.39999389648438 61 3
    endloop
  endfacet
  facet normal 1 0 0
    outer loop
      vertex 152.39999389648438 63.5 6
      vertex 152.39999389648438 62.5 6
      vertex 152.39999389648438 63.5 3
    endloop
  endfacet
  facet normal 1 0 0
    outer loop
      vertex 152.39999389648438 63.5 3
      vertex 152.39999389648438 67.5 0
      vertex 152.39999389648438 67.5 3
    endloop
  endfacet
  facet normal 1 0 0
    outer loop
      vertex 152.39999389648438 62.5 3
      vertex 152.39999389648438 63.5 3
      vertex 152.39999389648438 62.5 6
    endloop
  endfacet
  facet normal 1 0 0
    outer loop
      vertex 152.39999389648438 62.5 3
      vertex 152.39999389648438 67.5 0
      vertex 152.39999389648438 63.5 3
    endloop
  endfacet
  facet normal 1 0 0
    outer loop
      vertex 152.39999389648438 61 3
      vertex 152.39999389648438 67.5 0
      vertex 152.39999389648438 62.5 3
    endloop
  endfacet
  facet normal 1 0 0
    outer loop
      vertex 152.39999389648438 60 3
      vertex 152.39999389648438 61 3
      vertex 152.39999389648438 60 6
    endloop
  endfacet
  facet normal 1 0 0
    outer loop
      vertex 152.39999389648438 60 3
      vertex 152.39999389648438 67.5 0
      vertex 152.39999389648438 61 3
    endloop
  endfacet
  facet normal 1 0 0
    outer loop
      vertex 152.39999389648438 58.5 3
      vertex 152.39999389648438 67.5 0
      vertex 152.39999389648438 60 3
    endloop
  endfacet
  facet normal 1 0 0
    outer loop
      vertex 152.39999389648438 57.5 3
      vertex 152.39999389648438 58.5 3
      vertex 152.39999389648438 57.5 6
    endloop
  endfacet
  facet normal 1 0 0
    outer loop
      vertex 152.39999389648438 57.5 3
      vertex 152.39999389648438 67.5 0
      vertex 152.39999389648438 58.5 3
    endloop
  endfacet
  facet normal 1 0 0
    outer loop
      vertex 152.39999389648438 56 3
      vertex 152.39999389648438 67.5 0
      vertex 152.39999389648438 57.5 3
    endloop
  endfacet
  facet normal 1 0 0
    outer loop
      vertex 152.39999389648438 55 3
      vertex 152.39999389648438 56 3
      vertex 152.39999389648438 55 6
    endloop
  endfacet
  facet normal 1 0 0
    outer loop
      vertex 152.39999389648438 55 3
      vertex 152.39999389648438 67.5 0
      vertex 152.39999389648438 56 3
    endloop
  endfacet
  facet normal 1 0 0
    outer loop
      vertex 152.39999389648438 53.5 3
      vertex 152.39999389648438 67.5 0
      vertex 152.39999389648438 55 3
    endloop
  endfacet
  facet normal 1 0 0
    outer loop
      vertex 152.39999389648438 52.5 3
      vertex 152.39999389648438 53.5 3
      vertex 152.39999389648438 52.5 6
    endloop
  endfacet
  facet normal 1 0 0
    outer loop
      vertex 152.39999389648438 52.5 3
      vertex 152.39999389648438 67.5 0
      vertex 152.39999389648438 53.5 3
    endloop
  endfacet
  facet normal 1 0 0
    outer loop
      vertex 152.39999389648438 51 3
      vertex 152.39999389648438 67.5 0
      vertex 152.39999389648438 52.5 3
    endloop
  endfacet
  facet normal 1 0 0
    outer loop
      vertex 152.39999389648438 50 3
      vertex 152.39999389648438 51 3
      vertex 152.39999389648438 50 6
    endloop
  endfacet
  facet normal 1 0 0
    outer loop
      vertex 152.39999389648438 50 3
      vertex 152.39999389648438 67.5 0
      vertex 152.39999389648438 51 3
    endloop
  endfacet
  facet normal 1 0 0
    outer loop
      vertex 152.39999389648438 48.5 3
      vertex 152.39999389648438 67.5 0
      vertex 152.39999389648438 50 3
    endloop
  endfacet
  facet normal 1 0 0
    outer loop
      vertex 152.39999389648438 47.5 3
      vertex 152.39999389648438 48.5 3
      vertex 152.39999389648438 47.5 6
    endloop
  endfacet
  facet normal 1 0 0
    outer loop
      vertex 152.39999389648438 47.5 3
      vertex 152.39999389648438 67.5 0
      vertex 152.39999389648438 48.5 3
    endloop
  endfacet
  facet normal 1 0 0
    outer loop
      vertex 152.39999389648438 46 3
      vertex 152.39999389648438 67.5 0
      vertex 152.39999389648438 47.5 3
    endloop
  endfacet
  facet normal 1 0 0
    outer loop
      vertex 152.39999389648438 45 3
      vertex 152.39999389648438 46 3
      vertex 152.39999389648438 45 6
    endloop
  endfacet
  facet normal 1 0 0
    outer loop
      vertex 152.39999389648438 45 3
      vertex 152.39999389648438 67.5 0
      vertex 152.39999389648438 46 3
    endloop
  endfacet
  facet normal 1 0 0
    outer loop
      vertex 152.39999389648438 43.5 3
      vertex 152.39999389648438 67.5 0
      vertex 152.39999389648438 45 3
    endloop
  endfacet
  facet normal 1 0 0
    outer loop
      vertex 152.39999389648438 42.5 3
      vertex 152.39999389648438 43.5 3
      vertex 152.39999389648438 42.5 6
    endloop
  endfacet
  facet normal 1 0 0
    outer loop
      vertex 152.39999389648438 42.5 3
      vertex 152.39999389648438 67.5 0
      vertex 152.39999389648438 43.5 3
    endloop
  endfacet
  facet normal 1 0 0
    outer loop
      vertex 152.39999389648438 41 3
      vertex 152.39999389648438 67.5 0
      vertex 152.39999389648438 42.5 3
    endloop
  endfacet
  facet normal 1 0 0
    outer loop
      vertex 152.39999389648438 40 3
      vertex 152.39999389648438 41 3
      vertex 152.39999389648438 40 6
    endloop
  endfacet
  facet normal 1 0 0
    outer loop
      vertex 152.39999389648438 40 3
      vertex 152.39999389648438 67.5 0
      vertex 152.39999389648438 41 3
    endloop
  endfacet
  facet normal 1 0 0
    outer loop
      vertex 152.39999389648438 38.5 3
      vertex 152.39999389648438 67.5 0
      vertex 152.39999389648438 40 3
    endloop
  endfacet
  facet normal 1 0 0
    outer loop
      vertex 152.39999389648438 37.5 3
      vertex 152.39999389648438 38.5 3
      vertex 152.39999389648438 37.5 6
    endloop
  endfacet
  facet normal 1 0 0
    outer loop
      vertex 152.39999389648438 37.5 3
      vertex 152.39999389648438 67.5 0
      vertex 152.39999389648438 38.5 3
    endloop
  endfacet
  facet normal 1 0 0
    outer loop
      vertex 152.39999389648438 36 3
      vertex 152.39999389648438 67.5 0
      vertex 152.39999389648438 37.5 3
    endloop
  endfacet
  facet normal 1 0 0
    outer loop
      vertex 152.39999389648438 35 3
      vertex 152.39999389648438 36 3
      vertex 152.39999389648438 35 6
    endloop
  endfacet
  facet normal 1 0 0
    outer loop
      vertex 152.39999389648438 35 3
      vertex 152.39999389648438 67.5 0
      vertex 152.39999389648438 36 3
    endloop
  endfacet
  facet normal 1 0 0
    outer loop
      vertex 152.39999389648438 33.5 3
      vertex 152.39999389648438 67.5 0
      vertex 152.39999389648438 35 3
    endloop
  endfacet
  facet normal 1 0 0
    outer loop
      vertex 152.39999389648438 32.5 3
      vertex 152.39999389648438 33.5 3
      vertex 152.39999389648438 32.5 6
    endloop
  endfacet
  facet normal 1 0 0
    outer loop
      vertex 152.39999389648438 32.5 3
      vertex 152.39999389648438 67.5 0
      vertex 152.39999389648438 33.5 3
    endloop
  endfacet
  facet normal 1 0 0
    outer loop
      vertex 152.39999389648438 31 3
      vertex 152.39999389648438 67.5 0
      vertex 152.39999389648438 32.5 3
    endloop
  endfacet
  facet normal 1 0 0
    outer loop
      vertex 152.39999389648438 30 3
      vertex 152.39999389648438 31 3
      vertex 152.39999389648438 30 6
    endloop
  endfacet
  facet normal 1 0 0
    outer loop
      vertex 152.39999389648438 30 3
      vertex 152.39999389648438 67.5 0
      vertex 152.39999389648438 31 3
    endloop
  endfacet
  facet normal 1 0 0
    outer loop
      vertex 152.39999389648438 28.5 3
      vertex 152.39999389648438 67.5 0
      vertex 152.39999389648438 30 3
    endloop
  endfacet
  facet normal 1 0 0
    outer loop
      vertex 152.39999389648438 27.5 3
      vertex 152.39999389648438 28.5 3
      vertex 152.39999389648438 27.5 6
    endloop
  endfacet
  facet normal 1 0 0
    outer loop
      vertex 152.39999389648438 -5 0
      vertex 152.39999389648438 28.5 3
      vertex 152.39999389648438 27.5 3
    endloop
  endfacet
  facet normal 1 0 0
    outer loop
      vertex 152.39999389648438 -5 0
      vertex 152.39999389648438 27.5 3
      vertex 152.39999389648438 26 3
    endloop
  endfacet
  facet normal 1 0 0
    outer loop
      vertex 152.39999389648438 25 3
      vertex 152.39999389648438 26 3
      vertex 152.39999389648438 25 6
    endloop
  endfacet
  facet normal 1 0 0
    outer loop
      vertex 152.39999389648438 -5 0
      vertex 152.39999389648438 26 3
      vertex 152.39999389648438 25 3
    endloop
  endfacet
  facet normal 1 0 0
    outer loop
      vertex 152.39999389648438 -5 0
      vertex 152.39999389648438 25 3
      vertex 152.39999389648438 23.5 3
    endloop
  endfacet
  facet normal 1 0 0
    outer loop
      vertex 152.39999389648438 22.5 3
      vertex 152.39999389648438 23.5 3
      vertex 152.39999389648438 22.5 6
    endloop
  endfacet
  facet normal 1 0 0
    outer loop
      vertex 152.39999389648438 -5 0
      vertex 152.39999389648438 23.5 3
      vertex 152.39999389648438 22.5 3
    endloop
  endfacet
  facet normal 1 0 0
    outer loop
      vertex 152.39999389648438 -5 0
      vertex 152.39999389648438 22.5 3
      vertex 152.39999389648438 21 3
    endloop
  endfacet
  facet normal 1 0 0
    outer loop
      vertex 152.39999389648438 20 3
      vertex 152.39999389648438 21 3
      vertex 152.39999389648438 20 6
    endloop
  endfacet
  facet normal 1 0 0
    outer loop
      vertex 152.39999389648438 -5 0
      vertex 152.39999389648438 21 3
      vertex 152.39999389648438 20 3
    endloop
  endfacet
  facet normal 1 0 0
    outer loop
      vertex 152.39999389648438 -5 0
      vertex 152.39999389648438 20 3
      vertex 152.39999389648438 18.5 3
    endloop
  endfacet
  facet normal 1 0 0
    outer loop
      vertex 152.39999389648438 17.5 3
      vertex 152.39999389648438 18.5 3
      vertex 152.39999389648438 17.5 6
    endloop
  endfacet
  facet normal 1 0 0
    outer loop
      vertex 152.39999389648438 -5 0
      vertex 152.39999389648438 18.5 3
      vertex 152.39999389648438 17.5 3
    endloop
  endfacet
  facet normal 1 0 0
    outer loop
      vertex 152.39999389648438 -5 0
      vertex 152.39999389648438 17.5 3
      vertex 152.39999389648438 16 3
    endloop
  endfacet
  facet normal 1 0 0
    outer loop
      vertex 152.39999389648438 15 3
      vertex 152.39999389648438 16 3
      vertex 152.39999389648438 15 6
    endloop
  endfacet
  facet normal 1 0 0
    outer loop
      vertex 152.39999389648438 -5 0
      vertex 152.39999389648438 16 3
      vertex 152.39999389648438 15 3
    endloop
  endfacet
  facet normal 1 0 0
    outer loop
      vertex 152.39999389648438 -5 0
      vertex 152.39999389648438 15 3
      vertex 152.39999389648438 13.5 3
    endloop
  endfacet
  facet normal 1 0 0
    outer loop
      vertex 152.39999389648438 12.5 3
      vertex 152.39999389648438 13.5 3
      vertex 152.39999389648438 12.5 6
    endloop
  endfacet
  facet normal 1 0 0
    outer loop
      vertex 152.39999389648438 -5 0
      vertex 152.39999389648438 13.5 3
      vertex 152.39999389648438 12.5 3
    endloop
  endfacet
  facet normal 1 0 0
    outer loop
      vertex 152.39999389648438 -5 0
      vertex 152.39999389648438 12.5 3
      vertex 152.39999389648438 11 3
    endloop
  endfacet
  facet normal 1 0 0
    outer loop
      vertex 152.39999389648438 10 3
      vertex 152.39999389648438 11 3
      vertex 152.39999389648438 10 6
    endloop
  endfacet
  facet normal 1 0 0
    outer loop
      vertex 152.39999389648438 -5 0
      vertex 152.39999389648438 11 3
      vertex 152.39999389648438 10 3
    endloop
  endfacet
  facet normal 1 0 0
    outer loop
      vertex 152.39999389648438 -5 0
      vertex 152.39999389648438 10 3
      vertex 152.39999389648438 8.5 3
    endloop
  endfacet
  facet normal 1 0 0
    outer loop
      vertex 152.39999389648438 7.5 3
      vertex 152.39999389648438 8.5 3
      vertex 152.39999389648438 7.5 6
    endloop
  endfacet
  facet normal 1 0 0
    outer loop
      vertex 152.39999389648438 -5 0
      vertex 152.39999389648438 8.5 3
      vertex 152.39999389648438 7.5 3
    endloop
  endfacet
  facet normal 1 0 0
    outer loop
      vertex 152.39999389648438 -5 0
      vertex 152.39999389648438 7.5 3
      vertex 152.39999389648438 6 3
    endloop
  endfacet
  facet normal 1 0 0
    outer loop
      vertex 152.39999389648438 5 3
      vertex 152.39999389648438 6 3
      vertex 152.39999389648438 5 6
    endloop
  endfacet
  facet normal 1 0 0
    outer loop
      vertex 152.39999389648438 -5 0
      vertex 152.39999389648438 6 3
      vertex 152.39999389648438 5 3
    endloop
  endfacet
  facet normal 1 0 0
    outer loop
      vertex 152.39999389648438 -5 0
      vertex 152.39999389648438 5 3
      vertex 152.39999389648438 3.5 3
    endloop
  endfacet
  facet normal 1 0 0
    outer loop
      vertex 152.39999389648438 2.5 3
      vertex 152.39999389648438 3.5 3
      vertex 152.39999389648438 2.5 6
    endloop
  endfacet
  facet normal 1 0 0
    outer loop
      vertex 152.39999389648438 -5 0
      vertex 152.39999389648438 3.5 3
      vertex 152.39999389648438 2.5 3
    endloop
  endfacet
  facet normal 1 0 0
    outer loop
      vertex 152.39999389648438 -5 0
      vertex 152.39999389648438 2.5 3
      vertex 152.39999389648438 1 3
    endloop
  endfacet
  facet normal 1 0 0
    outer loop
      vertex 152.39999389648438 0 3
      vertex 152.39999389648438 1 3
      vertex 152.39999389648438 0 6
    endloop
  endfacet
  facet normal 1 0 0
    outer loop
      vertex 152.39999389648438 -5 0
      vertex 152.39999389648438 1 3
      vertex 152.39999389648438 0 3
    endloop
  endfacet
  facet normal 1 0 0
    outer loop
      vertex 152.39999389648438 -5 0
      vertex 152.39999389648438 0 3
      vertex 152.39999389648438 -5 3
    endloop
  endfacet
  facet normal 1 0 0
    outer loop
      vertex 152.39999389648438 28.5 3
      vertex 152.39999389648438 -5 0
      vertex 152.39999389648438 67.5 0
    endloop
  endfacet
  facet normal 0 0 1
    outer loop
      vertex 0 2.5 3
      vertex 152.39999389648438 1 3
      vertex 152.39999389648438 2.5 3
    endloop
  endfacet
  facet normal 0 0 1
    outer loop
      vertex 152.39999389648438 1 3
      vertex 0 2.5 3
      vertex 0 1 3
    endloop
  endfacet
  facet normal 0 0 -1
    outer loop
      vertex 0 -5 0
      vertex 8 0 0
      vertex 8 -5 0
    endloop
  endfacet
  facet normal 0 0 -1
    outer loop
      vertex 0 67.5 0
      vertex 8 0 0
      vertex 0 -5 0
    endloop
  endfacet
  facet normal 0 0 -1
    outer loop
      vertex 8 0 0
      vertex 0 67.5 0
      vertex 8 63.5 0
    endloop
  endfacet
  facet normal 0 0 -1
    outer loop
      vertex 8 63.5 0
      vertex 0 67.5 0
      vertex 8 67.5 0
    endloop
  endfacet
  facet normal 0 0 -1
    outer loop
      vertex 8 0 0
      vertex 144.39999389648438 63.5 0
      vertex 144.39999389648438 0 0
    endloop
  endfacet
  facet normal 0 0 -1
    outer loop
      vertex 144.39999389648438 63.5 0
      vertex 8 0 0
      vertex 8 63.5 0
    endloop
  endfacet
  facet normal 0 0 -1
    outer loop
      vertex 144.39999389648438 0 0
      vertex 152.39999389648438 -5 0
      vertex 144.39999389648438 -5 0
    endloop
  endfacet
  facet normal 0 0 -1
    outer loop
      vertex 152.39999389648438 -5 0
      vertex 144.39999389648438 0 0
      vertex 152.39999389648438 67.5 0
    endloop
  endfacet
  facet normal 0 0 -1
    outer loop
      vertex 144.39999389648438 63.5 0
      vertex 152.39999389648438 67.5 0
      vertex 144.39999389648438 0 0
    endloop
  endfacet
  facet normal 0 0 -1
    outer loop
      vertex 152.39999389648438 67.5 0
      vertex 144.39999389648438 63.5 0
      vertex 144.39999389648438 67.5 0
    endloop
  endfacet
  facet normal -1 0 0
    outer loop
      vertex 0 67.5 0
      vertex 0 63.5 3
      vertex 0 67.5 3
    endloop
  endfacet
  facet normal -1 0 0
    outer loop
      vertex 0 63.5 3
      vertex 0 62.5 3
      vertex 0 63.5 6
    endloop
  endfacet
  facet normal -1 0 0
    outer loop
      vertex 0 67.5 0
      vertex 0 62.5 3
      vertex 0 63.5 3
    endloop
  endfacet
  facet normal -1 0 0
    outer loop
      vertex 0 67.5 0
      vertex 0 61 3
      vertex 0 62.5 3
    endloop
  endfacet
  facet normal -1 0 0
    outer loop
      vertex 0 61 3
      vertex 0 60 3
      vertex 0 61 6
    endloop
  endfacet
  facet normal -1 0 0
    outer loop
      vertex 0 67.5 0
      vertex 0 60 3
      vertex 0 61 3
    endloop
  endfacet
  facet normal -1 0 0
    outer loop
      vertex 0 67.5 0
      vertex 0 58.5 3
      vertex 0 60 3
    endloop
  endfacet
  facet normal -1 0 0
    outer loop
      vertex 0 58.5 3
      vertex 0 57.5 3
      vertex 0 58.5 6
    endloop
  endfacet
  facet normal -1 0 0
    outer loop
      vertex 0 67.5 0
      vertex 0 57.5 3
      vertex 0 58.5 3
    endloop
  endfacet
  facet normal -1 0 0
    outer loop
      vertex 0 67.5 0
      vertex 0 56 3
      vertex 0 57.5 3
    endloop
  endfacet
  facet normal -1 0 0
    outer loop
      vertex 0 56 3
      vertex 0 55 3
      vertex 0 56 6
    endloop
  endfacet
  facet normal -1 0 0
    outer loop
      vertex 0 67.5 0
      vertex 0 55 3
      vertex 0 56 3
    endloop
  endfacet
  facet normal -1 0 0
    outer loop
      vertex 0 67.5 0
      vertex 0 53.5 3
      vertex 0 55 3
    endloop
  endfacet
  facet normal -1 0 0
    outer loop
      vertex 0 53.5 3
      vertex 0 52.5 3
      vertex 0 53.5 6
    endloop
  endfacet
  facet normal -1 0 0
    outer loop
      vertex 0 67.5 0
      vertex 0 52.5 3
      vertex 0 53.5 3
    endloop
  endfacet
  facet normal -1 0 0
    outer loop
      vertex 0 67.5 0
      vertex 0 51 3
      vertex 0 52.5 3
    endloop
  endfacet
  facet normal -1 0 0
    outer loop
      vertex 0 51 3
      vertex 0 50 3
      vertex 0 51 6
    endloop
  endfacet
  facet normal -1 0 0
    outer loop
      vertex 0 67.5 0
      vertex 0 50 3
      vertex 0 51 3
    endloop
  endfacet
  facet normal -1 0 0
    outer loop
      vertex 0 67.5 0
      vertex 0 48.5 3
      vertex 0 50 3
    endloop
  endfacet
  facet normal -1 0 0
    outer loop
      vertex 0 48.5 3
      vertex 0 47.5 3
      vertex 0 48.5 6
    endloop
  endfacet
  facet normal -1 0 0
    outer loop
      vertex 0 67.5 0
      vertex 0 47.5 3
      vertex 0 48.5 3
    endloop
  endfacet
  facet normal -1 0 0
    outer loop
      vertex 0 67.5 0
      vertex 0 46 3
      vertex 0 47.5 3
    endloop
  endfacet
  facet normal -1 0 0
    outer loop
      vertex 0 46 3
      vertex 0 45 3
      vertex 0 46 6
    endloop
  endfacet
  facet normal -1 0 0
    outer loop
      vertex 0 67.5 0
      vertex 0 45 3
      vertex 0 46 3
    endloop
  endfacet
  facet normal -1 0 0
    outer loop
      vertex 0 67.5 0
      vertex 0 43.5 3
      vertex 0 45 3
    endloop
  endfacet
  facet normal -1 0 0
    outer loop
      vertex 0 43.5 3
      vertex 0 42.5 3
      vertex 0 43.5 6
    endloop
  endfacet
  facet normal -1 0 0
    outer loop
      vertex 0 67.5 0
      vertex 0 42.5 3
      vertex 0 43.5 3
    endloop
  endfacet
  facet normal -1 0 0
    outer loop
      vertex 0 67.5 0
      vertex 0 41 3
      vertex 0 42.5 3
    endloop
  endfacet
  facet normal -1 0 0
    outer loop
      vertex 0 41 3
      vertex 0 40 3
      vertex 0 41 6
    endloop
  endfacet
  facet normal -1 0 0
    outer loop
      vertex 0 67.5 0
      vertex 0 40 3
      vertex 0 41 3
    endloop
  endfacet
  facet normal -1 0 0
    outer loop
      vertex 0 67.5 0
      vertex 0 38.5 3
      vertex 0 40 3
    endloop
  endfacet
  facet normal -1 0 0
    outer loop
      vertex 0 38.5 3
      vertex 0 37.5 3
      vertex 0 38.5 6
    endloop
  endfacet
  facet normal -1 0 0
    outer loop
      vertex 0 67.5 0
      vertex 0 37.5 3
      vertex 0 38.5 3
    endloop
  endfacet
  facet normal -1 0 0
    outer loop
      vertex 0 67.5 0
      vertex 0 36 3
      vertex 0 37.5 3
    endloop
  endfacet
  facet normal -1 0 0
    outer loop
      vertex 0 36 3
      vertex 0 35 3
      vertex 0 36 6
    endloop
  endfacet
  facet normal -1 0 0
    outer loop
      vertex 0 67.5 0
      vertex 0 35 3
      vertex 0 36 3
    endloop
  endfacet
  facet normal -1 0 0
    outer loop
      vertex 0 67.5 0
      vertex 0 33.5 3
      vertex 0 35 3
    endloop
  endfacet
  facet normal -1 0 0
    outer loop
      vertex 0 33.5 3
      vertex 0 32.5 3
      vertex 0 33.5 6
    endloop
  endfacet
  facet normal -1 0 0
    outer loop
      vertex 0 67.5 0
      vertex 0 32.5 3
      vertex 0 33.5 3
    endloop
  endfacet
  facet normal -1 0 0
    outer loop
      vertex 0 67.5 0
      vertex 0 31 3
      vertex 0 32.5 3
    endloop
  endfacet
  facet normal -1 0 0
    outer loop
      vertex 0 31 3
      vertex 0 30 3
      vertex 0 31 6
    endloop
  endfacet
  facet normal -1 0 0
    outer loop
      vertex 0 67.5 0
      vertex 0 30 3
      vertex 0 31 3
    endloop
  endfacet
  facet normal -1 0 0
    outer loop
      vertex 0 67.5 0
      vertex 0 28.5 3
      vertex 0 30 3
    endloop
  endfacet
  facet normal -1 0 0
    outer loop
      vertex 0 28.5 3
      vertex 0 27.5 3
      vertex 0 28.5 6
    endloop
  endfacet
  facet normal -1 0 0
    outer loop
      vertex 0 -5 0
      vertex 0 28.5 3
      vertex 0 67.5 0
    endloop
  endfacet
  facet normal -1 0 0
    outer loop
      vertex 0 28.5 3
      vertex 0 -5 0
      vertex 0 27.5 3
    endloop
  endfacet
  facet normal -1 0 0
    outer loop
      vertex 0 26 3
      vertex 0 25 3
      vertex 0 26 6
    endloop
  endfacet
  facet normal -1 0 0
    outer loop
      vertex 0 27.5 3
      vertex 0 -5 0
      vertex 0 26 3
    endloop
  endfacet
  facet normal -1 0 0
    outer loop
      vertex 0 26 3
      vertex 0 -5 0
      vertex 0 25 3
    endloop
  endfacet
  facet normal -1 0 0
    outer loop
      vertex 0 23.5 3
      vertex 0 22.5 3
      vertex 0 23.5 6
    endloop
  endfacet
  facet normal -1 0 0
    outer loop
      vertex 0 25 3
      vertex 0 -5 0
      vertex 0 23.5 3
    endloop
  endfacet
  facet normal -1 0 0
    outer loop
      vertex 0 23.5 3
      vertex 0 -5 0
      vertex 0 22.5 3
    endloop
  endfacet
  facet normal -1 0 0
    outer loop
      vertex 0 21 3
      vertex 0 20 3
      vertex 0 21 6
    endloop
  endfacet
  facet normal -1 0 0
    outer loop
      vertex 0 22.5 3
      vertex 0 -5 0
      vertex 0 21 3
    endloop
  endfacet
  facet normal -1 0 0
    outer loop
      vertex 0 21 3
      vertex 0 -5 0
      vertex 0 20 3
    endloop
  endfacet
  facet normal -1 0 0
    outer loop
      vertex 0 18.5 3
      vertex 0 17.5 3
      vertex 0 18.5 6
    endloop
  endfacet
  facet normal -1 0 0
    outer loop
      vertex 0 20 3
      vertex 0 -5 0
      vertex 0 18.5 3
    endloop
  endfacet
  facet normal -1 0 0
    outer loop
      vertex 0 18.5 3
      vertex 0 -5 0
      vertex 0 17.5 3
    endloop
  endfacet
  facet normal -1 0 0
    outer loop
      vertex 0 16 3
      vertex 0 15 3
      vertex 0 16 6
    endloop
  endfacet
  facet normal -1 0 0
    outer loop
      vertex 0 17.5 3
      vertex 0 -5 0
      vertex 0 16 3
    endloop
  endfacet
  facet normal -1 0 0
    outer loop
      vertex 0 16 3
      vertex 0 -5 0
      vertex 0 15 3
    endloop
  endfacet
  facet normal -1 0 0
    outer loop
      vertex 0 13.5 3
      vertex 0 12.5 3
      vertex 0 13.5 6
    endloop
  endfacet
  facet normal -1 0 0
    outer loop
      vertex 0 15 3
      vertex 0 -5 0
      vertex 0 13.5 3
    endloop
  endfacet
  facet normal -1 0 0
    outer loop
      vertex 0 13.5 3
      vertex 0 -5 0
      vertex 0 12.5 3
    endloop
  endfacet
  facet normal -1 0 0
    outer loop
      vertex 0 11 3
      vertex 0 10 3
      vertex 0 11 6
    endloop
  endfacet
  facet normal -1 0 0
    outer loop
      vertex 0 12.5 3
      vertex 0 -5 0
      vertex 0 11 3
    endloop
  endfacet
  facet normal -1 0 0
    outer loop
      vertex 0 11 3
      vertex 0 -5 0
      vertex 0 10 3
    endloop
  endfacet
  facet normal -1 0 0
    outer loop
      vertex 0 8.5 3
      vertex 0 7.5 3
      vertex 0 8.5 6
    endloop
  endfacet
  facet normal -1 0 0
    outer loop
      vertex 0 10 3
      vertex 0 -5 0
      vertex 0 8.5 3
    endloop
  endfacet
  facet normal -1 0 0
    outer loop
      vertex 0 8.5 3
      vertex 0 -5 0
      vertex 0 7.5 3
    endloop
  endfacet
  facet normal -1 0 0
    outer loop
      vertex 0 6 3
      vertex 0 5 3
      vertex 0 6 6
    endloop
  endfacet
  facet normal -1 0 0
    outer loop
      vertex 0 7.5 3
      vertex 0 -5 0
      vertex 0 6 3
    endloop
  endfacet
  facet normal -1 0 0
    outer loop
      vertex 0 6 3
      vertex 0 -5 0
      vertex 0 5 3
    endloop
  endfacet
  facet normal -1 0 0
    outer loop
      vertex 0 3.5 3
      vertex 0 2.5 3
      vertex 0 3.5 6
    endloop
  endfacet
  facet normal -1 0 0
    outer loop
      vertex 0 5 3
      vertex 0 -5 0
      vertex 0 3.5 3
    endloop
  endfacet
  facet normal -1 0 0
    outer loop
      vertex 0 3.5 3
      vertex 0 -5 0
      vertex 0 2.5 3
    endloop
  endfacet
  facet normal -1 0 0
    outer loop
      vertex 0 1 3
      vertex 0 0 3
      vertex 0 1 6
    endloop
  endfacet
  facet normal -1 0 0
    outer loop
      vertex 0 2.5 3
      vertex 0 -5 0
      vertex 0 1 3
    endloop
  endfacet
  facet normal -1 0 0
    outer loop
      vertex 0 1 3
      vertex 0 -5 0
      vertex 0 0 3
    endloop
  endfacet
  facet normal -1 0 0
    outer loop
      vertex 0 0 3
      vertex 0 -5 0
      vertex 0 -5 3
    endloop
  endfacet
  facet normal -1 0 0
    outer loop
      vertex 0 63.5 6
      vertex 0 62.5 3
      vertex 0 62.5 6
    endloop
  endfacet
  facet normal -1 0 0
    outer loop
      vertex 0 61 6
      vertex 0 60 3
      vertex 0 60 6
    endloop
  endfacet
  facet normal -1 0 0
    outer loop
      vertex 0 58.5 6
      vertex 0 57.5 3
      vertex 0 57.5 6
    endloop
  endfacet
  facet normal -1 0 0
    outer loop
      vertex 0 56 6
      vertex 0 55 3
      vertex 0 55 6
    endloop
  endfacet
  facet normal -1 0 0
    outer loop
      vertex 0 53.5 6
      vertex 0 52.5 3
      vertex 0 52.5 6
    endloop
  endfacet
  facet normal -1 0 0
    outer loop
      vertex 0 51 6
      vertex 0 50 3
      vertex 0 50 6
    endloop
  endfacet
  facet normal -1 0 0
    outer loop
      vertex 0 48.5 6
      vertex 0 47.5 3
      vertex 0 47.5 6
    endloop
  endfacet
  facet normal -1 0 0
    outer loop
      vertex 0 46 6
      vertex 0 45 3
      vertex 0 45 6
    endloop
  endfacet
  facet normal -1 0 0
    outer loop
      vertex 0 43.5 6
      vertex 0 42.5 3
      vertex 0 42.5 6
    endloop
  endfacet
  facet normal -1 0 0
    outer loop
      vertex 0 41 6
      vertex 0 40 3
      vertex 0 40 6
    endloop
  endfacet
  facet normal -1 0 0
    outer loop
      vertex 0 38.5 6
      vertex 0 37.5 3
      vertex 0 37.5 6
    endloop
  endfacet
  facet normal -1 0 0
    outer loop
      vertex 0 36 6
      vertex 0 35 3
      vertex 0 35 6
    endloop
  endfacet
  facet normal -1 0 0
    outer loop
      vertex 0 33.5 6
      vertex 0 32.5 3
      vertex 0 32.5 6
    endloop
  endfacet
  facet normal -1 0 0
    outer loop
      vertex 0 31 6
      vertex 0 30 3
      vertex 0 30 6
    endloop
  endfacet
  facet normal -1 0 0
    outer loop
      vertex 0 28.5 6
      vertex 0 27.5 3
      vertex 0 27.5 6
    endloop
  endfacet
  facet normal -1 0 0
    outer loop
      vertex 0 26 6
      vertex 0 25 3
      vertex 0 25 6
    endloop
  endfacet
  facet normal -1 0 0
    outer loop
      vertex 0 23.5 6
      vertex 0 22.5 3
      vertex 0 22.5 6
    endloop
  endfacet
  facet normal -1 0 0
    outer loop
      vertex 0 21 6
      vertex 0 20 3
      vertex 0 20 6
    endloop
  endfacet
  facet normal -1 0 0
    outer loop
      vertex 0 18.5 6
      vertex 0 17.5 3
      vertex 0 17.5 6
    endloop
  endfacet
  facet normal -1 0 0
    outer loop
      vertex 0 16 6
      vertex 0 15 3
      vertex 0 15 6
    endloop
  endfacet
  facet normal -1 0 0
    outer loop
      vertex 0 13.5 6
      vertex 0 12.5 3
      vertex 0 12.5 6
    endloop
  endfacet
  facet normal -1 0 0
    outer loop
      vertex 0 11 6
      vertex 0 10 3
      vertex 0 10 6
    endloop
  endfacet
  facet normal -1 0 0
    outer loop
      vertex 0 8.5 6
      vertex 0 7.5 3
      vertex 0 7.5 6
    endloop
  endfacet
  facet normal -1 0 0
    outer loop
      vertex 0 6 6
      vertex 0 5 3
      vertex 0 5 6
    endloop
  endfacet
  facet normal -1 0 0
    outer loop
      vertex 0 3.5 6
      vertex 0 2.5 3
      vertex 0 2.5 6
    endloop
  endfacet
  facet normal -1 0 0
    outer loop
      vertex 0 1 6
      vertex 0 0 3
      vertex 0 0 6
    endloop
  endfacet
  facet normal 0 -1 0
    outer loop
      vertex 0 2.5 3
      vertex 152.39999389648438 2.5 6
      vertex 0 2.5 6
    endloop
  endfacet
  facet normal 0 -1 0
    outer loop
      vertex 152.39999389648438 2.5 6
      vertex 0 2.5 3
      vertex 152.39999389648438 2.5 3
    endloop
  endfacet
  facet normal 0 -1 0
    outer loop
      vertex 8 0 0
      vertex 144.39999389648438 0 3
      vertex 8 0 3
    endloop
  endfacet
  facet normal 0 -1 0
    outer loop
      vertex 144.39999389648438 0 3
      vertex 8 0 0
      vertex 144.39999389648438 0 0
    endloop
  endfacet
  facet normal 0 -1 0
    outer loop
      vertex 8 0 3
      vertex 0 0 6
      vertex 0 0 3
    endloop
  endfacet
  facet normal 0 -1 0
    outer loop
      vertex 0 0 6
      vertex 8 0 3
      vertex 152.39999389648438 0 6
    endloop
  endfacet
  facet normal 0 -1 0
    outer loop
      vertex 144.39999389648438 0 3
      vertex 152.39999389648438 0 6
      vertex 8 0 3
    endloop
  endfacet
  facet normal 0 -1 0
    outer loop
      vertex 152.39999389648438 0 6
      vertex 144.39999389648438 0 3
      vertex 152.39999389648438 0 3
    endloop
  endfacet
  facet normal 0 0 1
    outer loop
      vertex 0 1 6
      vertex 152.39999389648438 0 6
      vertex 152.39999389648438 1 6
    endloop
  endfacet
  facet normal 0 0 1
    outer loop
      vertex 152.39999389648438 0 6
      vertex 0 1 6
      vertex 0 0 6
    endloop
  endfacet
  facet normal 0 1 0
    outer loop
      vertex 152.39999389648438 1 3
      vertex 0 1 6
      vertex 152.39999389648438 1 6
    endloop
  endfacet
  facet normal 0 1 0
    outer loop
      vertex 0 1 6
      vertex 152.39999389648438 1 3
      vertex 0 1 3
    endloop
  endfacet
  facet normal 0 0 1
    outer loop
      vertex 0 3.5 6
      vertex 152.39999389648438 2.5 6
      vertex 152.39999389648438 3.5 6
    endloop
  endfacet
  facet normal 0 0 1
    outer loop
      vertex 152.39999389648438 2.5 6
      vertex 0 3.5 6
      vertex 0 2.5 6
    endloop
  endfacet
  facet normal 0 1 0
    outer loop
      vertex 152.39999389648438 3.5 3
      vertex 0 3.5 6
      vertex 152.39999389648438 3.5 6
    endloop
  endfacet
  facet normal 0 1 0
    outer loop
      vertex 0 3.5 6
      vertex 152.39999389648438 3.5 3
      vertex 0 3.5 3
    endloop
  endfacet
  facet normal 0 0 1
    outer loop
      vertex 0 5 3
      vertex 152.39999389648438 3.5 3
      vertex 152.39999389648438 5 3
    endloop
  endfacet
  facet normal 0 0 1
    outer loop
      vertex 152.39999389648438 3.5 3
      vertex 0 5 3
      vertex 0 3.5 3
    endloop
  endfacet
  facet normal 0 -1 0
    outer loop
      vertex 0 5 3
      vertex 152.39999389648438 5 6
      vertex 0 5 6
    endloop
  endfacet
  facet normal 0 -1 0
    outer loop
      vertex 152.39999389648438 5 6
      vertex 0 5 3
      vertex 152.39999389648438 5 3
    endloop
  endfacet
  facet normal 0 0 1
    outer loop
      vertex 0 6 6
      vertex 152.39999389648438 5 6
      vertex 152.39999389648438 6 6
    endloop
  endfacet
  facet normal 0 0 1
    outer loop
      vertex 152.39999389648438 5 6
      vertex 0 6 6
      vertex 0 5 6
    endloop
  endfacet
  facet normal 0 1 0
    outer loop
      vertex 152.39999389648438 6 3
      vertex 0 6 6
      vertex 152.39999389648438 6 6
    endloop
  endfacet
  facet normal 0 1 0
    outer loop
      vertex 0 6 6
      vertex 152.39999389648438 6 3
      vertex 0 6 3
    endloop
  endfacet
  facet normal 0 0 1
    outer loop
      vertex 0 7.5 3
      vertex 152.39999389648438 6 3
      vertex 152.39999389648438 7.5 3
    endloop
  endfacet
  facet normal 0 0 1
    outer loop
      vertex 152.39999389648438 6 3
      vertex 0 7.5 3
      vertex 0 6 3
    endloop
  endfacet
  facet normal 0 -1 0
    outer loop
      vertex 0 7.5 3
      vertex 152.39999389648438 7.5 6
      vertex 0 7.5 6
    endloop
  endfacet
  facet normal 0 -1 0
    outer loop
      vertex 152.39999389648438 7.5 6
      vertex 0 7.5 3
      vertex 152.39999389648438 7.5 3
    endloop
  endfacet
  facet normal 0 0 1
    outer loop
      vertex 0 8.5 6
      vertex 152.39999389648438 7.5 6
      vertex 152.39999389648438 8.5 6
    endloop
  endfacet
  facet normal 0 0 1
    outer loop
      vertex 152.39999389648438 7.5 6
      vertex 0 8.5 6
      vertex 0 7.5 6
    endloop
  endfacet
  facet normal 0 1 0
    outer loop
      vertex 152.39999389648438 8.5 3
      vertex 0 8.5 6
      vertex 152.39999389648438 8.5 6
    endloop
  endfacet
  facet normal 0 1 0
    outer loop
      vertex 0 8.5 6
      vertex 152.39999389648438 8.5 3
      vertex 0 8.5 3
    endloop
  endfacet
  facet normal 0 0 1
    outer loop
      vertex 0 10 3
      vertex 152.39999389648438 8.5 3
      vertex 152.39999389648438 10 3
    endloop
  endfacet
  facet normal 0 0 1
    outer loop
      vertex 152.39999389648438 8.5 3
      vertex 0 10 3
      vertex 0 8.5 3
    endloop
  endfacet
  facet normal 0 -1 0
    outer loop
      vertex 0 10 3
      vertex 152.39999389648438 10 6
      vertex 0 10 6
    endloop
  endfacet
  facet normal 0 -1 0
    outer loop
      vertex 152.39999389648438 10 6
      vertex 0 10 3
      vertex 152.39999389648438 10 3
    endloop
  endfacet
  facet normal 0 0 1
    outer loop
      vertex 0 11 6
      vertex 152.39999389648438 10 6
      vertex 152.39999389648438 11 6
    endloop
  endfacet
  facet normal 0 0 1
    outer loop
      vertex 152.39999389648438 10 6
      vertex 0 11 6
      vertex 0 10 6
    endloop
  endfacet
  facet normal 0 1 0
    outer loop
      vertex 152.39999389648438 11 3
      vertex 0 11 6
      vertex 152.39999389648438 11 6
    endloop
  endfacet
  facet normal 0 1 0
    outer loop
      vertex 0 11 6
      vertex 152.39999389648438 11 3
      vertex 0 11 3
    endloop
  endfacet
  facet normal 0 0 1
    outer loop
      vertex 0 12.5 3
      vertex 152.39999389648438 11 3
      vertex 152.39999389648438 12.5 3
    endloop
  endfacet
  facet normal 0 0 1
    outer loop
      vertex 152.39999389648438 11 3
      vertex 0 12.5 3
      vertex 0 11 3
    endloop
  endfacet
  facet normal 0 -1 0
    outer loop
      vertex 0 12.5 3
      vertex 152.39999389648438 12.5 6
      vertex 0 12.5 6
    endloop
  endfacet
  facet normal 0 -1 0
    outer loop
      vertex 152.39999389648438 12.5 6
      vertex 0 12.5 3
      vertex 152.39999389648438 12.5 3
    endloop
  endfacet
  facet normal 0 0 1
    outer loop
      vertex 0 13.5 6
      vertex 152.39999389648438 12.5 6
      vertex 152.39999389648438 13.5 6
    endloop
  endfacet
  facet normal 0 0 1
    outer loop
      vertex 152.39999389648438 12.5 6
      vertex 0 13.5 6
      vertex 0 12.5 6
    endloop
  endfacet
  facet normal 0 1 0
    outer loop
      vertex 152.39999389648438 13.5 3
      vertex 0 13.5 6
      vertex 152.39999389648438 13.5 6
    endloop
  endfacet
  facet normal 0 1 0
    outer loop
      vertex 0 13.5 6
      vertex 152.39999389648438 13.5 3
      vertex 0 13.5 3
    endloop
  endfacet
  facet normal 0 0 1
    outer loop
      vertex 0 15 3
      vertex 152.39999389648438 13.5 3
      vertex 152.39999389648438 15 3
    endloop
  endfacet
  facet normal 0 0 1
    outer loop
      vertex 152.39999389648438 13.5 3
      vertex 0 15 3
      vertex 0 13.5 3
    endloop
  endfacet
  facet normal 0 -1 0
    outer loop
      vertex 0 15 3
      vertex 152.39999389648438 15 6
      vertex 0 15 6
    endloop
  endfacet
  facet normal 0 -1 0
    outer loop
      vertex 152.39999389648438 15 6
      vertex 0 15 3
      vertex 152.39999389648438 15 3
    endloop
  endfacet
  facet normal 0 0 1
    outer loop
      vertex 0 16 6
      vertex 152.39999389648438 15 6
      vertex 152.39999389648438 16 6
    endloop
  endfacet
  facet normal 0 0 1
    outer loop
      vertex 152.39999389648438 15 6
      vertex 0 16 6
      vertex 0 15 6
    endloop
  endfacet
  facet normal 0 1 0
    outer loop
      vertex 152.39999389648438 16 3
      vertex 0 16 6
      vertex 152.39999389648438 16 6
    endloop
  endfacet
  facet normal 0 1 0
    outer loop
      vertex 0 16 6
      vertex 152.39999389648438 16 3
      vertex 0 16 3
    endloop
  endfacet
  facet normal 0 0 1
    outer loop
      vertex 0 17.5 3
      vertex 152.39999389648438 16 3
      vertex 152.39999389648438 17.5 3
    endloop
  endfacet
  facet normal 0 0 1
    outer loop
      vertex 152.39999389648438 16 3
      vertex 0 17.5 3
      vertex 0 16 3
    endloop
  endfacet
  facet normal 0 -1 0
    outer loop
      vertex 0 17.5 3
      vertex 152.39999389648438 17.5 6
      vertex 0 17.5 6
    endloop
  endfacet
  facet normal 0 -1 0
    outer loop
      vertex 152.39999389648438 17.5 6
      vertex 0 17.5 3
      vertex 152.39999389648438 17.5 3
    endloop
  endfacet
  facet normal 0 0 1
    outer loop
      vertex 0 18.5 6
      vertex 152.39999389648438 17.5 6
      vertex 152.39999389648438 18.5 6
    endloop
  endfacet
  facet normal 0 0 1
    outer loop
      vertex 152.39999389648438 17.5 6
      vertex 0 18.5 6
      vertex 0 17.5 6
    endloop
  endfacet
  facet normal 0 1 0
    outer loop
      vertex 152.39999389648438 18.5 3
      vertex 0 18.5 6
      vertex 152.39999389648438 18.5 6
    endloop
  endfacet
  facet normal 0 1 0
    outer loop
      vertex 0 18.5 6
      vertex 152.39999389648438 18.5 3
      vertex 0 18.5 3
    endloop
  endfacet
  facet normal 0 0 1
    outer loop
      vertex 0 20 3
      vertex 152.39999389648438 18.5 3
      vertex 152.39999389648438 20 3
    endloop
  endfacet
  facet normal 0 0 1
    outer loop
      vertex 152.39999389648438 18.5 3
      vertex 0 20 3
      vertex 0 18.5 3
    endloop
  endfacet
  facet normal 0 -1 0
    outer loop
      vertex 0 20 3
      vertex 152.39999389648438 20 6
      vertex 0 20 6
    endloop
  endfacet
  facet normal 0 -1 0
    outer loop
      vertex 152.39999389648438 20 6
      vertex 0 20 3
      vertex 152.39999389648438 20 3
    endloop
  endfacet
  facet normal 0 0 1
    outer loop
      vertex 0 21 6
      vertex 152.39999389648438 20 6
      vertex 152.39999389648438 21 6
    endloop
  endfacet
  facet normal 0 0 1
    outer loop
      vertex 152.39999389648438 20 6
      vertex 0 21 6
      vertex 0 20 6
    endloop
  endfacet
  facet normal 0 1 0
    outer loop
      vertex 152.39999389648438 21 3
      vertex 0 21 6
      vertex 152.39999389648438 21 6
    endloop
  endfacet
  facet normal 0 1 0
    outer loop
      vertex 0 21 6
      vertex 152.39999389648438 21 3
      vertex 0 21 3
    endloop
  endfacet
  facet normal 0 0 1
    outer loop
      vertex 0 22.5 3
      vertex 152.39999389648438 21 3
      vertex 152.39999389648438 22.5 3
    endloop
  endfacet
  facet normal 0 0 1
    outer loop
      vertex 152.39999389648438 21 3
      vertex 0 22.5 3
      vertex 0 21 3
    endloop
  endfacet
  facet normal 0 -1 0
    outer loop
      vertex 0 22.5 3
      vertex 152.39999389648438 22.5 6
      vertex 0 22.5 6
    endloop
  endfacet
  facet normal 0 -1 0
    outer loop
      vertex 152.39999389648438 22.5 6
      vertex 0 22.5 3
      vertex 152.39999389648438 22.5 3
    endloop
  endfacet
  facet normal 0 0 1
    outer loop
      vertex 0 23.5 6
      vertex 152.39999389648438 22.5 6
      vertex 152.39999389648438 23.5 6
    endloop
  endfacet
  facet normal 0 0 1
    outer loop
      vertex 152.39999389648438 22.5 6
      vertex 0 23.5 6
      vertex 0 22.5 6
    endloop
  endfacet
  facet normal 0 1 0
    outer loop
      vertex 152.39999389648438 23.5 3
      vertex 0 23.5 6
      vertex 152.39999389648438 23.5 6
    endloop
  endfacet
  facet normal 0 1 0
    outer loop
      vertex 0 23.5 6
      vertex 152.39999389648438 23.5 3
      vertex 0 23.5 3
    endloop
  endfacet
  facet normal 0 0 1
    outer loop
      vertex 0 25 3
      vertex 152.39999389648438 23.5 3
      vertex 152.39999389648438 25 3
    endloop
  endfacet
  facet normal 0 0 1
    outer loop
      vertex 152.39999389648438 23.5 3
      vertex 0 25 3
      vertex 0 23.5 3
    endloop
  endfacet
  facet normal 0 -1 0
    outer loop
      vertex 0 25 3
      vertex 152.39999389648438 25 6
      vertex 0 25 6
    endloop
  endfacet
  facet normal 0 -1 0
    outer loop
      vertex 152.39999389648438 25 6
      vertex 0 25 3
      vertex 152.39999389648438 25 3
    endloop
  endfacet
  facet normal 0 0 1
    outer loop
      vertex 0 26 6
      vertex 152.39999389648438 25 6
      vertex 152.39999389648438 26 6
    endloop
  endfacet
  facet normal 0 0 1
    outer loop
      vertex 152.39999389648438 25 6
      vertex 0 26 6
      vertex 0 25 6
    endloop
  endfacet
  facet normal 0 1 0
    outer loop
      vertex 152.39999389648438 26 3
      vertex 0 26 6
      vertex 152.39999389648438 26 6
    endloop
  endfacet
  facet normal 0 1 0
    outer loop
      vertex 0 26 6
      vertex 152.39999389648438 26 3
      vertex 0 26 3
    endloop
  endfacet
  facet normal 0 0 1
    outer loop
      vertex 0 27.5 3
      vertex 152.39999389648438 26 3
      vertex 152.39999389648438 27.5 3
    endloop
  endfacet
  facet normal 0 0 1
    outer loop
      vertex 152.39999389648438 26 3
      vertex 0 27.5 3
      vertex 0 26 3
    endloop
  endfacet
  facet normal 0 -1 0
    outer loop
      vertex 0 27.5 3
      vertex 152.39999389648438 27.5 6
      vertex 0 27.5 6
    endloop
  endfacet
  facet normal 0 -1 0
    outer loop
      vertex 152.39999389648438 27.5 6
      vertex 0 27.5 3
      vertex 152.39999389648438 27.5 3
    endloop
  endfacet
  facet normal 0 0 1
    outer loop
      vertex 0 28.5 6
      vertex 152.39999389648438 27.5 6
      vertex 152.39999389648438 28.5 6
    endloop
  endfacet
  facet normal 0 0 1
    outer loop
      vertex 152.39999389648438 27.5 6
      vertex 0 28.5 6
      vertex 0 27.5 6
    endloop
  endfacet
  facet normal 0 1 0
    outer loop
      vertex 152.39999389648438 28.5 3
      vertex 0 28.5 6
      vertex 152.39999389648438 28.5 6
    endloop
  endfacet
  facet normal 0 1 0
    outer loop
      vertex 0 28.5 6
      vertex 152.39999389648438 28.5 3
      vertex 0 28.5 3
    endloop
  endfacet
  facet normal 0 0 1
    outer loop
      vertex 0 30 3
      vertex 152.39999389648438 28.5 3
      vertex 152.39999389648438 30 3
    endloop
  endfacet
  facet normal 0 0 1
    outer loop
      vertex 152.39999389648438 28.5 3
      vertex 0 30 3
      vertex 0 28.5 3
    endloop
  endfacet
  facet normal 0 -1 0
    outer loop
      vertex 0 30 3
      vertex 152.39999389648438 30 6
      vertex 0 30 6
    endloop
  endfacet
  facet normal 0 -1 0
    outer loop
      vertex 152.39999389648438 30 6
      vertex 0 30 3
      vertex 152.39999389648438 30 3
    endloop
  endfacet
  facet normal 0 0 1
    outer loop
      vertex 0 31 6
      vertex 152.39999389648438 30 6
      vertex 152.39999389648438 31 6
    endloop
  endfacet
  facet normal 0 0 1
    outer loop
      vertex 152.39999389648438 30 6
      vertex 0 31 6
      vertex 0 30 6
    endloop
  endfacet
  facet normal 0 1 0
    outer loop
      vertex 152.39999389648438 31 3
      vertex 0 31 6
      vertex 152.39999389648438 31 6
    endloop
  endfacet
  facet normal 0 1 0
    outer loop
      vertex 0 31 6
      vertex 152.39999389648438 31 3
      vertex 0 31 3
    endloop
  endfacet
  facet normal 0 0 1
    outer loop
      vertex 0 32.5 3
      vertex 152.39999389648438 31 3
      vertex 152.39999389648438 32.5 3
    endloop
  endfacet
  facet normal 0 0 1
    outer loop
      vertex 152.39999389648438 31 3
      vertex 0 32.5 3
      vertex 0 31 3
    endloop
  endfacet
  facet normal 0 -1 0
    outer loop
      vertex 0 32.5 3
      vertex 152.39999389648438 32.5 6
      vertex 0 32.5 6
    endloop
  endfacet
  facet normal 0 -1 0
    outer loop
      vertex 152.39999389648438 32.5 6
      vertex 0 32.5 3
      vertex 152.39999389648438 32.5 3
    endloop
  endfacet
  facet normal 0 0 1
    outer loop
      vertex 0 33.5 6
      vertex 152.39999389648438 32.5 6
      vertex 152.39999389648438 33.5 6
    endloop
  endfacet
  facet normal 0 0 1
    outer loop
      vertex 152.39999389648438 32.5 6
      vertex 0 33.5 6
      vertex 0 32.5 6
    endloop
  endfacet
  facet normal 0 1 0
    outer loop
      vertex 152.39999389648438 33.5 3
      vertex 0 33.5 6
      vertex 152.39999389648438 33.5 6
    endloop
  endfacet
  facet normal 0 1 0
    outer loop
      vertex 0 33.5 6
      vertex 152.39999389648438 33.5 3
      vertex 0 33.5 3
    endloop
  endfacet
  facet normal 0 0 1
    outer loop
      vertex 0 35 3
      vertex 152.39999389648438 33.5 3
      vertex 152.39999389648438 35 3
    endloop
  endfacet
  facet normal 0 0 1
    outer loop
      vertex 152.39999389648438 33.5 3
      vertex 0 35 3
      vertex 0 33.5 3
    endloop
  endfacet
  facet normal 0 -1 0
    outer loop
      vertex 0 35 3
      vertex 152.39999389648438 35 6
      vertex 0 35 6
    endloop
  endfacet
  facet normal 0 -1 0
    outer loop
      vertex 152.39999389648438 35 6
      vertex 0 35 3
      vertex 152.39999389648438 35 3
    endloop
  endfacet
  facet normal 0 0 1
    outer loop
      vertex 0 36 6
      vertex 152.39999389648438 35 6
      vertex 152.39999389648438 36 6
    endloop
  endfacet
  facet normal 0 0 1
    outer loop
      vertex 152.39999389648438 35 6
      vertex 0 36 6
      vertex 0 35 6
    endloop
  endfacet
  facet normal 0 1 0
    outer loop
      vertex 152.39999389648438 36 3
      vertex 0 36 6
      vertex 152.39999389648438 36 6
    endloop
  endfacet
  facet normal 0 1 0
    outer loop
      vertex 0 36 6
      vertex 152.39999389648438 36 3
      vertex 0 36 3
    endloop
  endfacet
  facet normal 0 0 1
    outer loop
      vertex 0 37.5 3
      vertex 152.39999389648438 36 3
      vertex 152.39999389648438 37.5 3
    endloop
  endfacet
  facet normal 0 0 1
    outer loop
      vertex 152.39999389648438 36 3
      vertex 0 37.5 3
      vertex 0 36 3
    endloop
  endfacet
  facet normal 0 -1 0
    outer loop
      vertex 0 37.5 3
      vertex 152.39999389648438 37.5 6
      vertex 0 37.5 6
    endloop
  endfacet
  facet normal 0 -1 0
    outer loop
      vertex 152.39999389648438 37.5 6
      vertex 0 37.5 3
      vertex 152.39999389648438 37.5 3
    endloop
  endfacet
  facet normal 0 0 1
    outer loop
      vertex 0 38.5 6
      vertex 152.39999389648438 37.5 6
      vertex 152.39999389648438 38.5 6
    endloop
  endfacet
  facet normal 0 0 1
    outer loop
      vertex 152.39999389648438 37.5 6
      vertex 0 38.5 6
      vertex 0 37.5 6
    endloop
  endfacet
  facet normal 0 1 0
    outer loop
      vertex 152.39999389648438 38.5 3
      vertex 0 38.5 6
      vertex 152.39999389648438 38.5 6
    endloop
  endfacet
  facet normal 0 1 0
    outer loop
      vertex 0 38.5 6
      vertex 152.39999389648438 38.5 3
      vertex 0 38.5 3
    endloop
  endfacet
  facet normal 0 0 1
    outer loop
      vertex 0 40 3
      vertex 152.39999389648438 38.5 3
      vertex 152.39999389648438 40 3
    endloop
  endfacet
  facet normal 0 0 1
    outer loop
      vertex 152.39999389648438 38.5 3
      vertex 0 40 3
      vertex 0 38.5 3
    endloop
  endfacet
  facet normal 0 -1 0
    outer loop
      vertex 0 40 3
      vertex 152.39999389648438 40 6
      vertex 0 40 6
    endloop
  endfacet
  facet normal 0 -1 0
    outer loop
      vertex 152.39999389648438 40 6
      vertex 0 40 3
      vertex 152.39999389648438 40 3
    endloop
  endfacet
  facet normal 0 0 1
    outer loop
      vertex 0 41 6
      vertex 152.39999389648438 40 6
      vertex 152.39999389648438 41 6
    endloop
  endfacet
  facet normal 0 0 1
    outer loop
      vertex 152.39999389648438 40 6
      vertex 0 41 6
      vertex 0 40 6
    endloop
  endfacet
  facet normal 0 1 0
    outer loop
      vertex 152.39999389648438 41 3
      vertex 0 41 6
      vertex 152.39999389648438 41 6
    endloop
  endfacet
  facet normal 0 1 0
    outer loop
      vertex 0 41 6
      vertex 152.39999389648438 41 3
      vertex 0 41 3
    endloop
  endfacet
  facet normal 0 0 1
    outer loop
      vertex 0 42.5 3
      vertex 152.39999389648438 41 3
      vertex 152.39999389648438 42.5 3
    endloop
  endfacet
  facet normal 0 0 1
    outer loop
      vertex 152.39999389648438 41 3
      vertex 0 42.5 3
      vertex 0 41 3
    endloop
  endfacet
  facet normal 0 -1 0
    outer loop
      vertex 0 42.5 3
      vertex 152.39999389648438 42.5 6
      vertex 0 42.5 6
    endloop
  endfacet
  facet normal 0 -1 0
    outer loop
      vertex 152.39999389648438 42.5 6
      vertex 0 42.5 3
      vertex 152.39999389648438 42.5 3
    endloop
  endfacet
  facet normal 0 0 1
    outer loop
      vertex 0 43.5 6
      vertex 152.39999389648438 42.5 6
      vertex 152.39999389648438 43.5 6
    endloop
  endfacet
  facet normal 0 0 1
    outer loop
      vertex 152.39999389648438 42.5 6
      vertex 0 43.5 6
      vertex 0 42.5 6
    endloop
  endfacet
  facet normal 0 1 0
    outer loop
      vertex 152.39999389648438 43.5 3
      vertex 0 43.5 6
      vertex 152.39999389648438 43.5 6
    endloop
  endfacet
  facet normal 0 1 0
    outer loop
      vertex 0 43.5 6
      vertex 152.39999389648438 43.5 3
      vertex 0 43.5 3
    endloop
  endfacet
  facet normal 0 0 1
    outer loop
      vertex 0 45 3
      vertex 152.39999389648438 43.5 3
      vertex 152.39999389648438 45 3
    endloop
  endfacet
  facet normal 0 0 1
    outer loop
      vertex 152.39999389648438 43.5 3
      vertex 0 45 3
      vertex 0 43.5 3
    endloop
  endfacet
  facet normal 0 -1 0
    outer loop
      vertex 0 45 3
      vertex 152.39999389648438 45 6
      vertex 0 45 6
    endloop
  endfacet
  facet normal 0 -1 0
    outer loop
      vertex 152.39999389648438 45 6
      vertex 0 45 3
      vertex 152.39999389648438 45 3
    endloop
  endfacet
  facet normal 0 0 1
    outer loop
      vertex 0 46 6
      vertex 152.39999389648438 45 6
      vertex 152.39999389648438 46 6
    endloop
  endfacet
  facet normal 0 0 1
    outer loop
      vertex 152.39999389648438 45 6
      vertex 0 46 6
      vertex 0 45 6
    endloop
  endfacet
  facet normal 0 1 0
    outer loop
      vertex 152.39999389648438 46 3
      vertex 0 46 6
      vertex 152.39999389648438 46 6
    endloop
  endfacet
  facet normal 0 1 0
    outer loop
      vertex 0 46 6
      vertex 152.39999389648438 46 3
      vertex 0 46 3
    endloop
  endfacet
  facet normal 0 0 1
    outer loop
      vertex 0 47.5 3
      vertex 152.39999389648438 46 3
      vertex 152.39999389648438 47.5 3
    endloop
  endfacet
  facet normal 0 0 1
    outer loop
      vertex 152.39999389648438 46 3
      vertex 0 47.5 3
      vertex 0 46 3
    endloop
  endfacet
  facet normal 0 -1 0
    outer loop
      vertex 0 47.5 3
      vertex 152.39999389648438 47.5 6
      vertex 0 47.5 6
    endloop
  endfacet
  facet normal 0 -1 0
    outer loop
      vertex 152.39999389648438 47.5 6
      vertex 0 47.5 3
      vertex 152.39999389648438 47.5 3
    endloop
  endfacet
  facet normal 0 0 1
    outer loop
      vertex 0 48.5 6
      vertex 152.39999389648438 47.5 6
      vertex 152.39999389648438 48.5 6
    endloop
  endfacet
  facet normal 0 0 1
    outer loop
      vertex 152.39999389648438 47.5 6
      vertex 0 48.5 6
      vertex 0 47.5 6
    endloop
  endfacet
  facet normal 0 1 0
    outer loop
      vertex 152.39999389648438 48.5 3
      vertex 0 48.5 6
      vertex 152.39999389648438 48.5 6
    endloop
  endfacet
  facet normal 0 1 0
    outer loop
      vertex 0 48.5 6
      vertex 152.39999389648438 48.5 3
      vertex 0 48.5 3
    endloop
  endfacet
  facet normal 0 0 1
    outer loop
      vertex 0 50 3
      vertex 152.39999389648438 48.5 3
      vertex 152.39999389648438 50 3
    endloop
  endfacet
  facet normal 0 0 1
    outer loop
      vertex 152.39999389648438 48.5 3
      vertex 0 50 3
      vertex 0 48.5 3
    endloop
  endfacet
  facet normal 0 -1 0
    outer loop
      vertex 0 50 3
      vertex 152.39999389648438 50 6
      vertex 0 50 6
    endloop
  endfacet
  facet normal 0 -1 0
    outer loop
      vertex 152.39999389648438 50 6
      vertex 0 50 3
      vertex 152.39999389648438 50 3
    endloop
  endfacet
  facet normal 0 0 1
    outer loop
      vertex 0 51 6
      vertex 152.39999389648438 50 6
      vertex 152.39999389648438 51 6
    endloop
  endfacet
  facet normal 0 0 1
    outer loop
      vertex 152.39999389648438 50 6
      vertex 0 51 6
      vertex 0 50 6
    endloop
  endfacet
  facet normal 0 1 0
    outer loop
      vertex 152.39999389648438 51 3
      vertex 0 51 6
      vertex 152.39999389648438 51 6
    endloop
  endfacet
  facet normal 0 1 0
    outer loop
      vertex 0 51 6
      vertex 152.39999389648438 51 3
      vertex 0 51 3
    endloop
  endfacet
  facet normal 0 0 1
    outer loop
      vertex 0 52.5 3
      vertex 152.39999389648438 51 3
      vertex 152.39999389648438 52.5 3
    endloop
  endfacet
  facet normal 0 0 1
    outer loop
      vertex 152.39999389648438 51 3
      vertex 0 52.5 3
      vertex 0 51 3
    endloop
  endfacet
  facet normal 0 -1 0
    outer loop
      vertex 0 52.5 3
      vertex 152.39999389648438 52.5 6
      vertex 0 52.5 6
    endloop
  endfacet
  facet normal 0 -1 0
    outer loop
      vertex 152.39999389648438 52.5 6
      vertex 0 52.5 3
      vertex 152.39999389648438 52.5 3
    endloop
  endfacet
  facet normal 0 0 1
    outer loop
      vertex 0 53.5 6
      vertex 152.39999389648438 52.5 6
      vertex 152.39999389648438 53.5 6
    endloop
  endfacet
  facet normal 0 0 1
    outer loop
      vertex 152.39999389648438 52.5 6
      vertex 0 53.5 6
      vertex 0 52.5 6
    endloop
  endfacet
  facet normal 0 1 0
    outer loop
      vertex 152.39999389648438 53.5 3
      vertex 0 53.5 6
      vertex 152.39999389648438 53.5 6
    endloop
  endfacet
  facet normal 0 1 0
    outer loop
      vertex 0 53.5 6
      vertex 152.39999389648438 53.5 3
      vertex 0 53.5 3
    endloop
  endfacet
  facet normal 0 0 1
    outer loop
      vertex 0 55 3
      vertex 152.39999389648438 53.5 3
      vertex 152.39999389648438 55 3
    endloop
  endfacet
  facet normal 0 0 1
    outer loop
      vertex 152.39999389648438 53.5 3
      vertex 0 55 3
      vertex 0 53.5 3
    endloop
  endfacet
  facet normal 0 -1 0
    outer loop
      vertex 0 55 3
      vertex 152.39999389648438 55 6
      vertex 0 55 6
    endloop
  endfacet
  facet normal 0 -1 0
    outer loop
      vertex 152.39999389648438 55 6
      vertex 0 55 3
      vertex 152.39999389648438 55 3
    endloop
  endfacet
  facet normal 0 0 1
    outer loop
      vertex 0 56 6
      vertex 152.39999389648438 55 6
      vertex 152.39999389648438 56 6
    endloop
  endfacet
  facet normal 0 0 1
    outer loop
      vertex 152.39999389648438 55 6
      vertex 0 56 6
      vertex 0 55 6
    endloop
  endfacet
  facet normal 0 1 0
    outer loop
      vertex 152.39999389648438 56 3
      vertex 0 56 6
      vertex 152.39999389648438 56 6
    endloop
  endfacet
  facet normal 0 1 0
    outer loop
      vertex 0 56 6
      vertex 152.39999389648438 56 3
      vertex 0 56 3
    endloop
  endfacet
  facet normal 0 0 1
    outer loop
      vertex 0 57.5 3
      vertex 152.39999389648438 56 3
      vertex 152.39999389648438 57.5 3
    endloop
  endfacet
  facet normal 0 0 1
    outer loop
      vertex 152.39999389648438 56 3
      vertex 0 57.5 3
      vertex 0 56 3
    endloop
  endfacet
  facet normal 0 -1 0
    outer loop
      vertex 0 57.5 3
      vertex 152.39999389648438 57.5 6
      vertex 0 57.5 6
    endloop
  endfacet
  facet normal 0 -1 0
    outer loop
      vertex 152.39999389648438 57.5 6
      vertex 0 57.5 3
      vertex 152.39999389648438 57.5 3
    endloop
  endfacet
  facet normal 0 0 1
    outer loop
      vertex 0 58.5 6
      vertex 152.39999389648438 57.5 6
      vertex 152.39999389648438 58.5 6
    endloop
  endfacet
  facet normal 0 0 1
    outer loop
      vertex 152.39999389648438 57.5 6
      vertex 0 58.5 6
      vertex 0 57.5 6
    endloop
  endfacet
  facet normal 0 1 0
    outer loop
      vertex 152.39999389648438 58.5 3
      vertex 0 58.5 6
      vertex 152.39999389648438 58.5 6
    endloop
  endfacet
  facet normal 0 1 0
    outer loop
      vertex 0 58.5 6
      vertex 152.39999389648438 58.5 3
      vertex 0 58.5 3
    endloop
  endfacet
  facet normal 0 0 1
    outer loop
      vertex 0 60 3
      vertex 152.39999389648438 58.5 3
      vertex 152.39999389648438 60 3
    endloop
  endfacet
  facet normal 0 0 1
    outer loop
      vertex 152.39999389648438 58.5 3
      vertex 0 60 3
      vertex 0 58.5 3
    endloop
  endfacet
  facet normal 0 -1 0
    outer loop
      vertex 0 60 3
      vertex 152.39999389648438 60 6
      vertex 0 60 6
    endloop
  endfacet
  facet normal 0 -1 0
    outer loop
      vertex 152.39999389648438 60 6
      vertex 0 60 3
      vertex 152.39999389648438 60 3
    endloop
  endfacet
  facet normal 0 0 1
    outer loop
      vertex 0 61 6
      vertex 152.39999389648438 60 6
      vertex 152.39999389648438 61 6
    endloop
  endfacet
  facet normal 0 0 1
    outer loop
      vertex 152.39999389648438 60 6
      vertex 0 61 6
      vertex 0 60 6
    endloop
  endfacet
  facet normal 0 1 0
    outer loop
      vertex 152.39999389648438 61 3
      vertex 0 61 6
      vertex 152.39999389648438 61 6
    endloop
  endfacet
  facet normal 0 1 0
    outer loop
      vertex 0 61 6
      vertex 152.39999389648438 61 3
      vertex 0 61 3
    endloop
  endfacet
  facet normal 0 0 1
    outer loop
      vertex 0 62.5 3
      vertex 152.39999389648438 61 3
      vertex 152.39999389648438 62.5 3
    endloop
  endfacet
  facet normal 0 0 1
    outer loop
      vertex 152.39999389648438 61 3
      vertex 0 62.5 3
      vertex 0 61 3
    endloop
  endfacet
  facet normal 0 -1 0
    outer loop
      vertex 0 62.5 3
      vertex 152.39999389648438 62.5 6
      vertex 0 62.5 6
    endloop
  endfacet
  facet normal 0 -1 0
    outer loop
      vertex 152.39999389648438 62.5 6
      vertex 0 62.5 3
      vertex 152.39999389648438 62.5 3
    endloop
  endfacet
  facet normal 0 0 1
    outer loop
      vertex 0 63.5 6
      vertex 152.39999389648438 62.5 6
      vertex 152.39999389648438 63.5 6
    endloop
  endfacet
  facet normal 0 0 1
    outer loop
      vertex 152.39999389648438 62.5 6
      vertex 0 63.5 6
      vertex 0 62.5 6
    endloop
  endfacet
  facet normal 0 1 0
    outer loop
      vertex 144.39999389648438 63.5 0
      vertex 8 63.5 3
      vertex 144.39999389648438 63.5 3
    endloop
  endfacet
  facet normal 0 1 0
    outer loop
      vertex 8 63.5 3
      vertex 144.39999389648438 63.5 0
      vertex 8 63.5 0
    endloop
  endfacet
  facet normal 0 1 0
    outer loop
      vertex 144.39999389648438 63.5 3
      vertex 152.39999389648438 63.5 6
      vertex 152.39999389648438 63.5 3
    endloop
  endfacet
  facet normal 0 1 0
    outer loop
      vertex 152.39999389648438 63.5 6
      vertex 144.39999389648438 63.5 3
      vertex 0 63.5 6
    endloop
  endfacet
  facet normal 0 1 0
    outer loop
      vertex 8 63.5 3
      vertex 0 63.5 6
      vertex 144.39999389648438 63.5 3
    endloop
  endfacet
  facet normal 0 1 0
    outer loop
      vertex 0 63.5 6
      vertex 8 63.5 3
      vertex 0 63.5 3
    endloop
  endfacet
  facet normal 1 0 0
    outer loop
      vertex 8 -5 3
      vertex 8 0 0
      vertex 8 0 3
    endloop
  endfacet
  facet normal 1 0 0
    outer loop
      vertex 8 0 0
      vertex 8 -5 3
      vertex 8 -5 0
    endloop
  endfacet
  facet normal 0 0 1
    outer loop
      vertex 0 0 3
      vertex 8 -5 3
      vertex 8 0 3
    endloop
  endfacet
  facet normal 0 0 1
    outer loop
      vertex 8 -5 3
      vertex 0 0 3
      vertex 0 -5 3
    endloop
  endfacet
  facet normal 0 -1 0
    outer loop
      vertex 0 -5 0
      vertex 8 -5 3
      vertex 0 -5 3
    endloop
  endfacet
  facet normal 0 -1 0
    outer loop
      vertex 8 -5 3
      vertex 0 -5 0
      vertex 8 -5 0
    endloop
  endfacet
  facet normal 0 0 1
    outer loop
      vertex 144.39999389648438 0 3
      vertex 152.39999389648438 -5 3
      vertex 152.39999389648438 0 3
    endloop
  endfacet
  facet normal 0 0 1
    outer loop
      vertex 152.39999389648438 -5 3
      vertex 144.39999389648438 0 3
      vertex 144.39999389648438 -5 3
    endloop
  endfacet
  facet normal -1 0 0
    outer loop
      vertex 144.39999389648438 -5 0
      vertex 144.39999389648438 0 3
      vertex 144.39999389648438 0 0
    endloop
  endfacet
  facet normal -1 0 0
    outer loop
      vertex 144.39999389648438 0 3
      vertex 144.39999389648438 -5 0
      vertex 144.39999389648438 -5 3
    endloop
  endfacet
  facet normal 0 -1 0
    outer loop
      vertex 144.39999389648438 -5 0
      vertex 152.39999389648438 -5 3
      vertex 144.39999389648438 -5 3
    endloop
  endfacet
  facet normal 0 -1 0
    outer loop
      vertex 152.39999389648438 -5 3
      vertex 144.39999389648438 -5 0
      vertex 152.39999389648438 -5 0
    endloop
  endfacet
  facet normal 1 0 0
    outer loop
      vertex 8 63.5 3
      vertex 8 67.5 0
      vertex 8 67.5 3
    endloop
  endfacet
  facet normal 1 0 0
    outer loop
      vertex 8 67.5 0
      vertex 8 63.5 3
      vertex 8 63.5 0
    endloop
  endfacet
  facet normal 0 0 1
    outer loop
      vertex 0 67.5 3
      vertex 8 63.5 3
      vertex 8 67.5 3
    endloop
  endfacet
  facet normal 0 0 1
    outer loop
      vertex 8 63.5 3
      vertex 0 67.5 3
      vertex 0 63.5 3
    endloop
  endfacet
  facet normal 0 1 0
    outer loop
      vertex 8 67.5 0
      vertex 0 67.5 3
      vertex 8 67.5 3
    endloop
  endfacet
  facet normal 0 1 0
    outer loop
      vertex 0 67.5 3
      vertex 8 67.5 0
      vertex 0 67.5 0
    endloop
  endfacet
  facet normal 0 0 1
    outer loop
      vertex 144.39999389648438 67.5 3
      vertex 152.39999389648438 63.5 3
      vertex 152.39999389648438 67.5 3
    endloop
  endfacet
  facet normal 0 0 1
    outer loop
      vertex 152.39999389648438 63.5 3
      vertex 144.39999389648438 67.5 3
      vertex 144.39999389648438 63.5 3
    endloop
  endfacet
  facet normal -1 0 0
    outer loop
      vertex 144.39999389648438 63.5 0
      vertex 144.39999389648438 67.5 3
      vertex 144.39999389648438 67.5 0
    endloop
  endfacet
  facet normal -1 0 0
    outer loop
      vertex 144.39999389648438 67.5 3
      vertex 144.39999389648438 63.5 0
      vertex 144.39999389648438 63.5 3
    endloop
  endfacet
  facet normal 0 1 0
    outer loop
      vertex 152.39999389648438 67.5 0
      vertex 144.39999389648438 67.5 3
      vertex 152.39999389648438 67.5 3
    endloop
  endfacet
  facet normal 0 1 0
    outer loop
      vertex 144.39999389648438 67.5 3
      vertex 152.39999389648438 67.5 0
      vertex 144.39999389648438 67.5 0
    endloop
  endfacet
endsolid OpenSCAD_Model
