solid OpenSCAD_Model
  facet normal 1 0 0
    outer loop
      vertex 203.1999969482422 1 6
      vertex 203.1999969482422 0 6
      vertex 203.1999969482422 1 3
    endloop
  endfacet
  facet normal 1 0 0
    outer loop
      vertex 203.1999969482422 3.5 6
      vertex 203.1999969482422 2.5 6
      vertex 203.1999969482422 3.5 3
    endloop
  endfacet
  facet normal 1 0 0
    outer loop
      vertex 203.1999969482422 6 6
      vertex 203.1999969482422 5 6
      vertex 203.1999969482422 6 3
    endloop
  endfacet
  facet normal 1 0 0
    outer loop
      vertex 203.1999969482422 8.5 6
      vertex 203.1999969482422 7.5 6
      vertex 203.1999969482422 8.5 3
    endloop
  endfacet
  facet normal 1 0 0
    outer loop
      vertex 203.1999969482422 11 6
      vertex 203.1999969482422 10 6
      vertex 203.1999969482422 11 3
    endloop
  endfacet
  facet normal 1 0 0
    outer loop
      vertex 203.1999969482422 13.5 6
      vertex 203.1999969482422 12.5 6
      vertex 203.1999969482422 13.5 3
    endloop
  endfacet
  facet normal 1 0 0
    outer loop
      vertex 203.1999969482422 16 6
      vertex 203.1999969482422 15 6
      vertex 203.1999969482422 16 3
    endloop
  endfacet
  facet normal 1 0 0
    outer loop
      vertex 203.1999969482422 18.5 6
      vertex 203.1999969482422 17.5 6
      vertex 203.1999969482422 18.5 3
    endloop
  endfacet
  facet normal 1 0 0
    outer loop
      vertex 203.1999969482422 21 6
      vertex 203.1999969482422 20 6
      vertex 203.1999969482422 21 3
    endloop
  endfacet
  facet normal 1 0 0
    outer loop
      vertex 203.1999969482422 23.5 6
      vertex 203.1999969482422 22.5 6
      vertex 203.1999969482422 23.5 3
    endloop
  endfacet
  facet normal 1 0 0
    outer loop
      vertex 203.1999969482422 26 6
      vertex 203.1999969482422 25 6
      vertex 203.1999969482422 26 3
    endloop
  endfacet
  facet normal 1 0 0
    outer loop
      vertex 203.1999969482422 28.5 6
      vertex 203.1999969482422 27.5 6
      vertex 203.1999969482422 28.5 3
    endloop
  endfacet
  facet normal 1 0 0
    outer loop
      vertex 203.1999969482422 31 6
      vertex 203.1999969482422 30 6
      vertex 203.1999969482422 31 3
    endloop
  endfacet
  facet normal 1 0 0
    outer loop
      vertex 203.1999969482422 33.5 6
      vertex 203.1999969482422 32.5 6
      vertex 203.1999969482422 33.5 3
    endloop
  endfacet
  facet normal 1 0 0
    outer loop
      vertex 203.1999969482422 36 6
      vertex 203.1999969482422 35 6
      vertex 203.1999969482422 36 3
    endloop
  endfacet
  facet normal 1 0 0
    outer loop
      vertex 203.1999969482422 38.5 6
      vertex 203.1999969482422 37.5 6
      vertex 203.1999969482422 38.5 3
    endloop
  endfacet
  facet normal 1 0 0
    outer loop
      vertex 203.1999969482422 41 6
      vertex 203.1999969482422 40 6
      vertex 203.1999969482422 41 3
    endloop
  endfacet
  facet normal 1 0 0
    outer loop
      vertex 203.1999969482422 43.5 6
      vertex 203.1999969482422 42.5 6
      vertex 203.1999969482422 43.5 3
    endloop
  endfacet
  facet normal 1 0 0
    outer loop
      vertex 203.1999969482422 46 6
      vertex 203.1999969482422 45 6
      vertex 203.1999969482422 46 3
    endloop
  endfacet
  facet normal 1 0 0
    outer loop
      vertex 203.1999969482422 48.5 6
      vertex 203.1999969482422 47.5 6
      vertex 203.1999969482422 48.5 3
    endloop
  endfacet
  facet normal 1 0 0
    outer loop
      vertex 203.1999969482422 51 6
      vertex 203.1999969482422 50 6
      vertex 203.1999969482422 51 3
    endloop
  endfacet
  facet normal 1 0 0
    outer loop
      vertex 203.1999969482422 53.5 6
      vertex 203.1999969482422 52.5 6
      vertex 203.1999969482422 53.5 3
    endloop
  endfacet
  facet normal 1 0 0
    outer loop
      vertex 203.1999969482422 56 6
      vertex 203.1999969482422 55 6
      vertex 203.1999969482422 56 3
    endloop
  endfacet
  facet normal 1 0 0
    outer loop
      vertex 203.1999969482422 58.5 6
      vertex 203.1999969482422 57.5 6
      vertex 203.1999969482422 58.5 3
    endloop
  endfacet
  facet normal 1 0 0
    outer loop
      vertex 203.1999969482422 61 6
      vertex 203.1999969482422 60 6
      vertex 203.1999969482422 61 3
    endloop
  endfacet
  facet normal 1 0 0
    outer loop
      vertex 203.1999969482422 63.5 6
      vertex 203.1999969482422 62.5 6
      vertex 203.1999969482422 63.5 3
    endloop
  endfacet
  facet normal 1 0 0
    outer loop
      vertex 203.1999969482422 63.5 3
      vertex 203.1999969482422 67.5 0
      vertex 203.1999969482422 67.5 3
    endloop
  endfacet
  facet normal 1 0 0
    outer loop
      vertex 203.1999969482422 62.5 3
      vertex 203.1999969482422 63.5 3
      vertex 203.1999969482422 62.5 6
    endloop
  endfacet
  facet normal 1 0 0
    outer loop
      vertex 203.1999969482422 62.5 3
      vertex 203.1999969482422 67.5 0
      vertex 203.1999969482422 63.5 3
    endloop
  endfacet
  facet normal 1 0 0
    outer loop
      vertex 203.1999969482422 61 3
      vertex 203.1999969482422 67.5 0
      vertex 203.1999969482422 62.5 3
    endloop
  endfacet
  facet normal 1 0 0
    outer loop
      vertex 203.1999969482422 60 3
      vertex 203.1999969482422 61 3
      vertex 203.1999969482422 60 6
    endloop
  endfacet
  facet normal 1 0 0
    outer loop
      vertex 203.1999969482422 60 3
      vertex 203.1999969482422 67.5 0
      vertex 203.1999969482422 61 3
    endloop
  endfacet
  facet normal 1 0 0
    outer loop
      vertex 203.1999969482422 58.5 3
      vertex 203.1999969482422 67.5 0
      vertex 203.1999969482422 60 3
    endloop
  endfacet
  facet normal 1 0 0
    outer loop
      vertex 203.1999969482422 57.5 3
      vertex 203.1999969482422 58.5 3
      vertex 203.1999969482422 57.5 6
    endloop
  endfacet
  facet normal 1 0 0
    outer loop
      vertex 203.1999969482422 57.5 3
      vertex 203.1999969482422 67.5 0
      vertex 203.1999969482422 58.5 3
    endloop
  endfacet
  facet normal 1 0 0
    outer loop
      vertex 203.1999969482422 56 3
      vertex 203.1999969482422 67.5 0
      vertex 203.1999969482422 57.5 3
    endloop
  endfacet
  facet normal 1 0 0
    outer loop
      vertex 203.1999969482422 55 3
      vertex 203.1999969482422 56 3
      vertex 203.1999969482422 55 6
    endloop
  endfacet
  facet normal 1 0 0
    outer loop
      vertex 203.1999969482422 55 3
      vertex 203.1999969482422 67.5 0
      vertex 203.1999969482422 56 3
    endloop
  endfacet
  facet normal 1 0 0
    outer loop
      vertex 203.1999969482422 53.5 3
      vertex 203.1999969482422 67.5 0
      vertex 203.1999969482422 55 3
    endloop
  endfacet
  facet normal 1 0 0
    outer loop
      vertex 203.1999969482422 52.5 3
      vertex 203.1999969482422 53.5 3
      vertex 203.1999969482422 52.5 6
    endloop
  endfacet
  facet normal 1 0 0
    outer loop
      vertex 203.1999969482422 52.5 3
      vertex 203.1999969482422 67.5 0
      vertex 203.1999969482422 53.5 3
    endloop
  endfacet
  facet normal 1 0 0
    outer loop
      vertex 203.1999969482422 51 3
      vertex 203.1999969482422 67.5 0
      vertex 203.1999969482422 52.5 3
    endloop
  endfacet
  facet normal 1 0 0
    outer loop
      vertex 203.1999969482422 50 3
      vertex 203.1999969482422 51 3
      vertex 203.1999969482422 50 6
    endloop
  endfacet
  facet normal 1 0 0
    outer loop
      vertex 203.1999969482422 50 3
      vertex 203.1999969482422 67.5 0
      vertex 203.1999969482422 51 3
    endloop
  endfacet
  facet normal 1 0 0
    outer loop
      vertex 203.1999969482422 48.5 3
      vertex 203.1999969482422 67.5 0
      vertex 203.1999969482422 50 3
    endloop
  endfacet
  facet normal 1 0 0
    outer loop
      vertex 203.1999969482422 47.5 3
      vertex 203.1999969482422 48.5 3
      vertex 203.1999969482422 47.5 6
    endloop
  endfacet
  facet normal 1 0 0
    outer loop
      vertex 203.1999969482422 47.5 3
      vertex 203.1999969482422 67.5 0
      vertex 203.1999969482422 48.5 3
    endloop
  endfacet
  facet normal 1 0 0
    outer loop
      vertex 203.1999969482422 46 3
      vertex 203.1999969482422 67.5 0
      vertex 203.1999969482422 47.5 3
    endloop
  endfacet
  facet normal 1 0 0
    outer loop
      vertex 203.1999969482422 45 3
      vertex 203.1999969482422 46 3
      vertex 203.1999969482422 45 6
    endloop
  endfacet
  facet normal 1 0 0
    outer loop
      vertex 203.1999969482422 45 3
      vertex 203.1999969482422 67.5 0
      vertex 203.1999969482422 46 3
    endloop
  endfacet
  facet normal 1 0 0
    outer loop
      vertex 203.1999969482422 43.5 3
      vertex 203.1999969482422 67.5 0
      vertex 203.1999969482422 45 3
    endloop
  endfacet
  facet normal 1 0 0
    outer loop
      vertex 203.1999969482422 42.5 3
      vertex 203.1999969482422 43.5 3
      vertex 203.1999969482422 42.5 6
    endloop
  endfacet
  facet normal 1 0 0
    outer loop
      vertex 203.1999969482422 42.5 3
      vertex 203.1999969482422 67.5 0
      vertex 203.1999969482422 43.5 3
    endloop
  endfacet
  facet normal 1 0 0
    outer loop
      vertex 203.1999969482422 41 3
      vertex 203.1999969482422 67.5 0
      vertex 203.1999969482422 42.5 3
    endloop
  endfacet
  facet normal 1 0 0
    outer loop
      vertex 203.1999969482422 40 3
      vertex 203.1999969482422 41 3
      vertex 203.1999969482422 40 6
    endloop
  endfacet
  facet normal 1 0 0
    outer loop
      vertex 203.1999969482422 40 3
      vertex 203.1999969482422 67.5 0
      vertex 203.1999969482422 41 3
    endloop
  endfacet
  facet normal 1 0 0
    outer loop
      vertex 203.1999969482422 38.5 3
      vertex 203.1999969482422 67.5 0
      vertex 203.1999969482422 40 3
    endloop
  endfacet
  facet normal 1 0 0
    outer loop
      vertex 203.1999969482422 37.5 3
      vertex 203.1999969482422 38.5 3
      vertex 203.1999969482422 37.5 6
    endloop
  endfacet
  facet normal 1 0 0
    outer loop
      vertex 203.1999969482422 37.5 3
      vertex 203.1999969482422 67.5 0
      vertex 203.1999969482422 38.5 3
    endloop
  endfacet
  facet normal 1 0 0
    outer loop
      vertex 203.1999969482422 36 3
      vertex 203.1999969482422 67.5 0
      vertex 203.1999969482422 37.5 3
    endloop
  endfacet
  facet normal 1 0 0
    outer loop
      vertex 203.1999969482422 35 3
      vertex 203.1999969482422 36 3
      vertex 203.1999969482422 35 6
    endloop
  endfacet
  facet normal 1 0 0
    outer loop
      vertex 203.1999969482422 35 3
      vertex 203.1999969482422 67.5 0
      vertex 203.1999969482422 36 3
    endloop
  endfacet
  facet normal 1 0 0
    outer loop
      vertex 203.1999969482422 33.5 3
      vertex 203.1999969482422 67.5 0
      vertex 203.1999969482422 35 3
    endloop
  endfacet
  facet normal 1 0 0
    outer loop
      vertex 203.1999969482422 32.5 3
      vertex 203.1999969482422 33.5 3
      vertex 203.1999969482422 32.5 6
    endloop
  endfacet
  facet normal 1 0 0
    outer loop
      vertex 203.1999969482422 32.5 3
      vertex 203.1999969482422 67.5 0
      vertex 203.1999969482422 33.5 3
    endloop
  endfacet
  facet normal 1 0 0
    outer loop
      vertex 203.1999969482422 31 3
      vertex 203.1999969482422 67.5 0
      vertex 203.1999969482422 32.5 3
    endloop
  endfacet
  facet normal 1 0 0
    outer loop
      vertex 203.1999969482422 30 3
      vertex 203.1999969482422 31 3
      vertex 203.1999969482422 30 6
    endloop
  endfacet
  facet normal 1 0 0
    outer loop
      vertex 203.1999969482422 30 3
      vertex 203.1999969482422 67.5 0
      vertex 203.1999969482422 31 3
    endloop
  endfacet
  facet normal 1 0 0
    outer loop
      vertex 203.1999969482422 28.5 3
      vertex 203.1999969482422 67.5 0
      vertex 203.1999969482422 30 3
    endloop
  endfacet
  facet normal 1 0 0
    outer loop
      vertex 203.1999969482422 27.5 3
      vertex 203.1999969482422 28.5 3
      vertex 203.1999969482422 27.5 6
    endloop
  endfacet
  facet normal 1 0 0
    outer loop
      vertex 203.1999969482422 -5 0
      vertex 203.1999969482422 28.5 3
      vertex 203.1999969482422 27.5 3
    endloop
  endfacet
  facet normal 1 0 0
    outer loop
      vertex 203.1999969482422 -5 0
      vertex 203.1999969482422 27.5 3
      vertex 203.1999969482422 26 3
    endloop
  endfacet
  facet normal 1 0 0
    outer loop
      vertex 203.1999969482422 25 3
      vertex 203.1999969482422 26 3
      vertex 203.1999969482422 25 6
    endloop
  endfacet
  facet normal 1 0 0
    outer loop
      vertex 203.1999969482422 -5 0
      vertex 203.1999969482422 26 3
      vertex 203.1999969482422 25 3
    endloop
  endfacet
  facet normal 1 0 0
    outer loop
      vertex 203.1999969482422 -5 0
      vertex 203.1999969482422 25 3
      vertex 203.1999969482422 23.5 3
    endloop
  endfacet
  facet normal 1 0 0
    outer loop
      vertex 203.1999969482422 22.5 3
      vertex 203.1999969482422 23.5 3
      vertex 203.1999969482422 22.5 6
    endloop
  endfacet
  facet normal 1 0 0
    outer loop
      vertex 203.1999969482422 -5 0
      vertex 203.1999969482422 23.5 3
      vertex 203.1999969482422 22.5 3
    endloop
  endfacet
  facet normal 1 0 0
    outer loop
      vertex 203.1999969482422 -5 0
      vertex 203.1999969482422 22.5 3
      vertex 203.1999969482422 21 3
    endloop
  endfacet
  facet normal 1 0 0
    outer loop
      vertex 203.1999969482422 20 3
      vertex 203.1999969482422 21 3
      vertex 203.1999969482422 20 6
    endloop
  endfacet
  facet normal 1 0 0
    outer loop
      vertex 203.1999969482422 -5 0
      vertex 203.1999969482422 21 3
      vertex 203.1999969482422 20 3
    endloop
  endfacet
  facet normal 1 0 0
    outer loop
      vertex 203.1999969482422 -5 0
      vertex 203.1999969482422 20 3
      vertex 203.1999969482422 18.5 3
    endloop
  endfacet
  facet normal 1 0 0
    outer loop
      vertex 203.1999969482422 17.5 3
      vertex 203.1999969482422 18.5 3
      vertex 203.1999969482422 17.5 6
    endloop
  endfacet
  facet normal 1 0 0
    outer loop
      vertex 203.1999969482422 -5 0
      vertex 203.1999969482422 18.5 3
      vertex 203.1999969482422 17.5 3
    endloop
  endfacet
  facet normal 1 0 0
    outer loop
      vertex 203.1999969482422 -5 0
      vertex 203.1999969482422 17.5 3
      vertex 203.1999969482422 16 3
    endloop
  endfacet
  facet normal 1 0 0
    outer loop
      vertex 203.1999969482422 15 3
      vertex 203.1999969482422 16 3
      vertex 203.1999969482422 15 6
    endloop
  endfacet
  facet normal 1 0 0
    outer loop
      vertex 203.1999969482422 -5 0
      vertex 203.1999969482422 16 3
      vertex 203.1999969482422 15 3
    endloop
  endfacet
  facet normal 1 0 0
    outer loop
      vertex 203.1999969482422 -5 0
      vertex 203.1999969482422 15 3
      vertex 203.1999969482422 13.5 3
    endloop
  endfacet
  facet normal 1 0 0
    outer loop
      vertex 203.1999969482422 12.5 3
      vertex 203.1999969482422 13.5 3
      vertex 203.1999969482422 12.5 6
    endloop
  endfacet
  facet normal 1 0 0
    outer loop
      vertex 203.1999969482422 -5 0
      vertex 203.1999969482422 13.5 3
      vertex 203.1999969482422 12.5 3
    endloop
  endfacet
  facet normal 1 0 0
    outer loop
      vertex 203.1999969482422 -5 0
      vertex 203.1999969482422 12.5 3
      vertex 203.1999969482422 11 3
    endloop
  endfacet
  facet normal 1 0 0
    outer loop
      vertex 203.1999969482422 10 3
      vertex 203.1999969482422 11 3
      vertex 203.1999969482422 10 6
    endloop
  endfacet
  facet normal 1 0 0
    outer loop
      vertex 203.1999969482422 -5 0
      vertex 203.1999969482422 11 3
      vertex 203.1999969482422 10 3
    endloop
  endfacet
  facet normal 1 0 0
    outer loop
      vertex 203.1999969482422 -5 0
      vertex 203.1999969482422 10 3
      vertex 203.1999969482422 8.5 3
    endloop
  endfacet
  facet normal 1 0 0
    outer loop
      vertex 203.1999969482422 7.5 3
      vertex 203.1999969482422 8.5 3
      vertex 203.1999969482422 7.5 6
    endloop
  endfacet
  facet normal 1 0 0
    outer loop
      vertex 203.1999969482422 -5 0
      vertex 203.1999969482422 8.5 3
      vertex 203.1999969482422 7.5 3
    endloop
  endfacet
  facet normal 1 0 0
    outer loop
      vertex 203.1999969482422 -5 0
      vertex 203.1999969482422 7.5 3
      vertex 203.1999969482422 6 3
    endloop
  endfacet
  facet normal 1 0 0
    outer loop
      vertex 203.1999969482422 5 3
      vertex 203.1999969482422 6 3
      vertex 203.1999969482422 5 6
    endloop
  endfacet
  facet normal 1 0 0
    outer loop
      vertex 203.1999969482422 -5 0
      vertex 203.1999969482422 6 3
      vertex 203.1999969482422 5 3
    endloop
  endfacet
  facet normal 1 0 0
    outer loop
      vertex 203.1999969482422 -5 0
      vertex 203.1999969482422 5 3
      vertex 203.1999969482422 3.5 3
    endloop
  endfacet
  facet normal 1 0 0
    outer loop
      vertex 203.1999969482422 2.5 3
      vertex 203.1999969482422 3.5 3
      vertex 203.1999969482422 2.5 6
    endloop
  endfacet
  facet normal 1 0 0
    outer loop
      vertex 203.1999969482422 -5 0
      vertex 203.1999969482422 3.5 3
      vertex 203.1999969482422 2.5 3
    endloop
  endfacet
  facet normal 1 0 0
    outer loop
      vertex 203.1999969482422 -5 0
      vertex 203.1999969482422 2.5 3
      vertex 203.1999969482422 1 3
    endloop
  endfacet
  facet normal 1 0 0
    outer loop
      vertex 203.1999969482422 0 3
      vertex 203.1999969482422 1 3
      vertex 203.1999969482422 0 6
    endloop
  endfacet
  facet normal 1 0 0
    outer loop
      vertex 203.1999969482422 -5 0
      vertex 203.1999969482422 1 3
      vertex 203.1999969482422 0 3
    endloop
  endfacet
  facet normal 1 0 0
    outer loop
      vertex 203.1999969482422 -5 0
      vertex 203.1999969482422 0 3
      vertex 203.1999969482422 -5 3
    endloop
  endfacet
  facet normal 1 0 0
    outer loop
      vertex 203.1999969482422 28.5 3
      vertex 203.1999969482422 -5 0
      vertex 203.1999969482422 67.5 0
    endloop
  endfacet
  facet normal 0 0 1
    outer loop
      vertex 0 2.5 3
      vertex 203.1999969482422 1 3
      vertex 203.1999969482422 2.5 3
    endloop
  endfacet
  facet normal 0 0 1
    outer loop
      vertex 203.1999969482422 1 3
      vertex 0 2.5 3
      vertex 0 1 3
    endloop
  endfacet
  facet normal 0 0 -1
    outer loop
      vertex 0 -5 0
      vertex 8 0 0
      vertex 8 -5 0
    endloop
  endfacet
  facet normal 0 0 -1
    outer loop
      vertex 0 67.5 0
      vertex 8 0 0
      vertex 0 -5 0
    endloop
  endfacet
  facet normal 0 0 -1
    outer loop
      vertex 8 0 0
      vertex 0 67.5 0
      vertex 8 63.5 0
    endloop
  endfacet
  facet normal 0 0 -1
    outer loop
      vertex 8 63.5 0
      vertex 0 67.5 0
      vertex 8 67.5 0
    endloop
  endfacet
  facet normal 0 0 -1
    outer loop
      vertex 8 0 0
      vertex 195.1999969482422 63.5 0
      vertex 195.1999969482422 0 0
    endloop
  endfacet
  facet normal 0 0 -1
    outer loop
      vertex 195.1999969482422 63.5 0
      vertex 8 0 0
      vertex 8 63.5 0
    endloop
  endfacet
  facet normal 0 0 -1
    outer loop
      vertex 195.1999969482422 0 0
      vertex 203.1999969482422 -5 0
      vertex 195.1999969482422 -5 0
    endloop
  endfacet
  facet normal 0 0 -1
    outer loop
      vertex 203.1999969482422 -5 0
      vertex 195.1999969482422 0 0
      vertex 203.1999969482422 67.5 0
    endloop
  endfacet
  facet normal 0 0 -1
    outer loop
      vertex 195.1999969482422 63.5 0
      vertex 203.1999969482422 67.5 0
      vertex 195.1999969482422 0 0
    endloop
  endfacet
  facet normal 0 0 -1
    outer loop
      vertex 203.1999969482422 67.5 0
      vertex 195.1999969482422 63.5 0
      vertex 195.1999969482422 67.5 0
    endloop
  endfacet
  facet normal -1 0 0
    outer loop
      vertex 0 67.5 0
      vertex 0 63.5 3
      vertex 0 67.5 3
    endloop
  endfacet
  facet normal -1 0 0
    outer loop
      vertex 0 63.5 3
      vertex 0 62.5 3
      vertex 0 63.5 6
    endloop
  endfacet
  facet normal -1 0 0
    outer loop
      vertex 0 67.5 0
      vertex 0 62.5 3
      vertex 0 63.5 3
    endloop
  endfacet
  facet normal -1 0 0
    outer loop
      vertex 0 67.5 0
      vertex 0 61 3
      vertex 0 62.5 3
    endloop
  endfacet
  facet normal -1 0 0
    outer loop
      vertex 0 61 3
      vertex 0 60 3
      vertex 0 61 6
    endloop
  endfacet
  facet normal -1 0 0
    outer loop
      vertex 0 67.5 0
      vertex 0 60 3
      vertex 0 61 3
    endloop
  endfacet
  facet normal -1 0 0
    outer loop
      vertex 0 67.5 0
      vertex 0 58.5 3
      vertex 0 60 3
    endloop
  endfacet
  facet normal -1 0 0
    outer loop
      vertex 0 58.5 3
      vertex 0 57.5 3
      vertex 0 58.5 6
    endloop
  endfacet
  facet normal -1 0 0
    outer loop
      vertex 0 67.5 0
      vertex 0 57.5 3
      vertex 0 58.5 3
    endloop
  endfacet
  facet normal -1 0 0
    outer loop
      vertex 0 67.5 0
      vertex 0 56 3
      vertex 0 57.5 3
    endloop
  endfacet
  facet normal -1 0 0
    outer loop
      vertex 0 56 3
      vertex 0 55 3
      vertex 0 56 6
    endloop
  endfacet
  facet normal -1 0 0
    outer loop
      vertex 0 67.5 0
      vertex 0 55 3
      vertex 0 56 3
    endloop
  endfacet
  facet normal -1 0 0
    outer loop
      vertex 0 67.5 0
      vertex 0 53.5 3
      vertex 0 55 3
    endloop
  endfacet
  facet normal -1 0 0
    outer loop
      vertex 0 53.5 3
      vertex 0 52.5 3
      vertex 0 53.5 6
    endloop
  endfacet
  facet normal -1 0 0
    outer loop
      vertex 0 67.5 0
      vertex 0 52.5 3
      vertex 0 53.5 3
    endloop
  endfacet
  facet normal -1 0 0
    outer loop
      vertex 0 67.5 0
      vertex 0 51 3
      vertex 0 52.5 3
    endloop
  endfacet
  facet normal -1 0 0
    outer loop
      vertex 0 51 3
      vertex 0 50 3
      vertex 0 51 6
    endloop
  endfacet
  facet normal -1 0 0
    outer loop
      vertex 0 67.5 0
      vertex 0 50 3
      vertex 0 51 3
    endloop
  endfacet
  facet normal -1 0 0
    outer loop
      vertex 0 67.5 0
      vertex 0 48.5 3
      vertex 0 50 3
    endloop
  endfacet
  facet normal -1 0 0
    outer loop
      vertex 0 48.5 3
      vertex 0 47.5 3
      vertex 0 48.5 6
    endloop
  endfacet
  facet normal -1 0 0
    outer loop
      vertex 0 67.5 0
      vertex 0 47.5 3
      vertex 0 48.5 3
    endloop
  endfacet
  facet normal -1 0 0
    outer loop
      vertex 0 67.5 0
      vertex 0 46 3
      vertex 0 47.5 3
    endloop
  endfacet
  facet normal -1 0 0
    outer loop
      vertex 0 46 3
      vertex 0 45 3
      vertex 0 46 6
    endloop
  endfacet
  facet normal -1 0 0
    outer loop
      vertex 0 67.5 0
      vertex 0 45 3
      vertex 0 46 3
    endloop
  endfacet
  facet normal -1 0 0
    outer loop
      vertex 0 67.5 0
      vertex 0 43.5 3
      vertex 0 45 3
    endloop
  endfacet
  facet normal -1 0 0
    outer loop
      vertex 0 43.5 3
      vertex 0 42.5 3
      vertex 0 43.5 6
    endloop
  endfacet
  facet normal -1 0 0
    outer loop
      vertex 0 67.5 0
      vertex 0 42.5 3
      vertex 0 43.5 3
    endloop
  endfacet
  facet normal -1 0 0
    outer loop
      vertex 0 67.5 0
      vertex 0 41 3
      vertex 0 42.5 3
    endloop
  endfacet
  facet normal -1 0 0
    outer loop
      vertex 0 41 3
      vertex 0 40 3
      vertex 0 41 6
    endloop
  endfacet
  facet normal -1 0 0
    outer loop
      vertex 0 67.5 0
      vertex 0 40 3
      vertex 0 41 3
    endloop
  endfacet
  facet normal -1 0 0
    outer loop
      vertex 0 67.5 0
      vertex 0 38.5 3
      vertex 0 40 3
    endloop
  endfacet
  facet normal -1 0 0
    outer loop
      vertex 0 38.5 3
      vertex 0 37.5 3
      vertex 0 38.5 6
    endloop
  endfacet
  facet normal -1 0 0
    outer loop
      vertex 0 67.5 0
      vertex 0 37.5 3
      vertex 0 38.5 3
    endloop
  endfacet
  facet normal -1 0 0
    outer loop
      vertex 0 67.5 0
      vertex 0 36 3
      vertex 0 37.5 3
    endloop
  endfacet
  facet normal -1 0 0
    outer loop
      vertex 0 36 3
      vertex 0 35 3
      vertex 0 36 6
    endloop
  endfacet
  facet normal -1 0 0
    outer loop
      vertex 0 67.5 0
      vertex 0 35 3
      vertex 0 36 3
    endloop
  endfacet
  facet normal -1 0 0
    outer loop
      vertex 0 67.5 0
      vertex 0 33.5 3
      vertex 0 35 3
    endloop
  endfacet
  facet normal -1 0 0
    outer loop
      vertex 0 33.5 3
      vertex 0 32.5 3
      vertex 0 33.5 6
    endloop
  endfacet
  facet normal -1 0 0
    outer loop
      vertex 0 67.5 0
      vertex 0 32.5 3
      vertex 0 33.5 3
    endloop
  endfacet
  facet normal -1 0 0
    outer loop
      vertex 0 67.5 0
      vertex 0 31 3
      vertex 0 32.5 3
    endloop
  endfacet
  facet normal -1 0 0
    outer loop
      vertex 0 31 3
      vertex 0 30 3
      vertex 0 31 6
    endloop
  endfacet
  facet normal -1 0 0
    outer loop
      vertex 0 67.5 0
      vertex 0 30 3
      vertex 0 31 3
    endloop
  endfacet
  facet normal -1 0 0
    outer loop
      vertex 0 67.5 0
      vertex 0 28.5 3
      vertex 0 30 3
    endloop
  endfacet
  facet normal -1 0 0
    outer loop
      vertex 0 28.5 3
      vertex 0 27.5 3
      vertex 0 28.5 6
    endloop
  endfacet
  facet normal -1 0 0
    outer loop
      vertex 0 -5 0
      vertex 0 28.5 3
      vertex 0 67.5 0
    endloop
  endfacet
  facet normal -1 0 0
    outer loop
      vertex 0 28.5 3
      vertex 0 -5 0
      vertex 0 27.5 3
    endloop
  endfacet
  facet normal -1 0 0
    outer loop
      vertex 0 26 3
      vertex 0 25 3
      vertex 0 26 6
    endloop
  endfacet
  facet normal -1 0 0
    outer loop
      vertex 0 27.5 3
      vertex 0 -5 0
      vertex 0 26 3
    endloop
  endfacet
  facet normal -1 0 0
    outer loop
      vertex 0 26 3
      vertex 0 -5 0
      vertex 0 25 3
    endloop
  endfacet
  facet normal -1 0 0
    outer loop
      vertex 0 23.5 3
      vertex 0 22.5 3
      vertex 0 23.5 6
    endloop
  endfacet
  facet normal -1 0 0
    outer loop
      vertex 0 25 3
      vertex 0 -5 0
      vertex 0 23.5 3
    endloop
  endfacet
  facet normal -1 0 0
    outer loop
      vertex 0 23.5 3
      vertex 0 -5 0
      vertex 0 22.5 3
    endloop
  endfacet
  facet normal -1 0 0
    outer loop
      vertex 0 21 3
      vertex 0 20 3
      vertex 0 21 6
    endloop
  endfacet
  facet normal -1 0 0
    outer loop
      vertex 0 22.5 3
      vertex 0 -5 0
      vertex 0 21 3
    endloop
  endfacet
  facet normal -1 0 0
    outer loop
      vertex 0 21 3
      vertex 0 -5 0
      vertex 0 20 3
    endloop
  endfacet
  facet normal -1 0 0
    outer loop
      vertex 0 18.5 3
      vertex 0 17.5 3
      vertex 0 18.5 6
    endloop
  endfacet
  facet normal -1 0 0
    outer loop
      vertex 0 20 3
      vertex 0 -5 0
      vertex 0 18.5 3
    endloop
  endfacet
  facet normal -1 0 0
    outer loop
      vertex 0 18.5 3
      vertex 0 -5 0
      vertex 0 17.5 3
    endloop
  endfacet
  facet normal -1 0 0
    outer loop
      vertex 0 16 3
      vertex 0 15 3
      vertex 0 16 6
    endloop
  endfacet
  facet normal -1 0 0
    outer loop
      vertex 0 17.5 3
      vertex 0 -5 0
      vertex 0 16 3
    endloop
  endfacet
  facet normal -1 0 0
    outer loop
      vertex 0 16 3
      vertex 0 -5 0
      vertex 0 15 3
    endloop
  endfacet
  facet normal -1 0 0
    outer loop
      vertex 0 13.5 3
      vertex 0 12.5 3
      vertex 0 13.5 6
    endloop
  endfacet
  facet normal -1 0 0
    outer loop
      vertex 0 15 3
      vertex 0 -5 0
      vertex 0 13.5 3
    endloop
  endfacet
  facet normal -1 0 0
    outer loop
      vertex 0 13.5 3
      vertex 0 -5 0
      vertex 0 12.5 3
    endloop
  endfacet
  facet normal -1 0 0
    outer loop
      vertex 0 11 3
      vertex 0 10 3
      vertex 0 11 6
    endloop
  endfacet
  facet normal -1 0 0
    outer loop
      vertex 0 12.5 3
      vertex 0 -5 0
      vertex 0 11 3
    endloop
  endfacet
  facet normal -1 0 0
    outer loop
      vertex 0 11 3
      vertex 0 -5 0
      vertex 0 10 3
    endloop
  endfacet
  facet normal -1 0 0
    outer loop
      vertex 0 8.5 3
      vertex 0 7.5 3
      vertex 0 8.5 6
    endloop
  endfacet
  facet normal -1 0 0
    outer loop
      vertex 0 10 3
      vertex 0 -5 0
      vertex 0 8.5 3
    endloop
  endfacet
  facet normal -1 0 0
    outer loop
      vertex 0 8.5 3
      vertex 0 -5 0
      vertex 0 7.5 3
    endloop
  endfacet
  facet normal -1 0 0
    outer loop
      vertex 0 6 3
      vertex 0 5 3
      vertex 0 6 6
    endloop
  endfacet
  facet normal -1 0 0
    outer loop
      vertex 0 7.5 3
      vertex 0 -5 0
      vertex 0 6 3
    endloop
  endfacet
  facet normal -1 0 0
    outer loop
      vertex 0 6 3
      vertex 0 -5 0
      vertex 0 5 3
    endloop
  endfacet
  facet normal -1 0 0
    outer loop
      vertex 0 3.5 3
      vertex 0 2.5 3
      vertex 0 3.5 6
    endloop
  endfacet
  facet normal -1 0 0
    outer loop
      vertex 0 5 3
      vertex 0 -5 0
      vertex 0 3.5 3
    endloop
  endfacet
  facet normal -1 0 0
    outer loop
      vertex 0 3.5 3
      vertex 0 -5 0
      vertex 0 2.5 3
    endloop
  endfacet
  facet normal -1 0 0
    outer loop
      vertex 0 1 3
      vertex 0 0 3
      vertex 0 1 6
    endloop
  endfacet
  facet normal -1 0 0
    outer loop
      vertex 0 2.5 3
      vertex 0 -5 0
      vertex 0 1 3
    endloop
  endfacet
  facet normal -1 0 0
    outer loop
      vertex 0 1 3
      vertex 0 -5 0
      vertex 0 0 3
    endloop
  endfacet
  facet normal -1 0 0
    outer loop
      vertex 0 0 3
      vertex 0 -5 0
      vertex 0 -5 3
    endloop
  endfacet
  facet normal -1 0 0
    outer loop
      vertex 0 63.5 6
      vertex 0 62.5 3
      vertex 0 62.5 6
    endloop
  endfacet
  facet normal -1 0 0
    outer loop
      vertex 0 61 6
      vertex 0 60 3
      vertex 0 60 6
    endloop
  endfacet
  facet normal -1 0 0
    outer loop
      vertex 0 58.5 6
      vertex 0 57.5 3
      vertex 0 57.5 6
    endloop
  endfacet
  facet normal -1 0 0
    outer loop
      vertex 0 56 6
      vertex 0 55 3
      vertex 0 55 6
    endloop
  endfacet
  facet normal -1 0 0
    outer loop
      vertex 0 53.5 6
      vertex 0 52.5 3
      vertex 0 52.5 6
    endloop
  endfacet
  facet normal -1 0 0
    outer loop
      vertex 0 51 6
      vertex 0 50 3
      vertex 0 50 6
    endloop
  endfacet
  facet normal -1 0 0
    outer loop
      vertex 0 48.5 6
      vertex 0 47.5 3
      vertex 0 47.5 6
    endloop
  endfacet
  facet normal -1 0 0
    outer loop
      vertex 0 46 6
      vertex 0 45 3
      vertex 0 45 6
    endloop
  endfacet
  facet normal -1 0 0
    outer loop
      vertex 0 43.5 6
      vertex 0 42.5 3
      vertex 0 42.5 6
    endloop
  endfacet
  facet normal -1 0 0
    outer loop
      vertex 0 41 6
      vertex 0 40 3
      vertex 0 40 6
    endloop
  endfacet
  facet normal -1 0 0
    outer loop
      vertex 0 38.5 6
      vertex 0 37.5 3
      vertex 0 37.5 6
    endloop
  endfacet
  facet normal -1 0 0
    outer loop
      vertex 0 36 6
      vertex 0 35 3
      vertex 0 35 6
    endloop
  endfacet
  facet normal -1 0 0
    outer loop
      vertex 0 33.5 6
      vertex 0 32.5 3
      vertex 0 32.5 6
    endloop
  endfacet
  facet normal -1 0 0
    outer loop
      vertex 0 31 6
      vertex 0 30 3
      vertex 0 30 6
    endloop
  endfacet
  facet normal -1 0 0
    outer loop
      vertex 0 28.5 6
      vertex 0 27.5 3
      vertex 0 27.5 6
    endloop
  endfacet
  facet normal -1 0 0
    outer loop
      vertex 0 26 6
      vertex 0 25 3
      vertex 0 25 6
    endloop
  endfacet
  facet normal -1 0 0
    outer loop
      vertex 0 23.5 6
      vertex 0 22.5 3
      vertex 0 22.5 6
    endloop
  endfacet
  facet normal -1 0 0
    outer loop
      vertex 0 21 6
      vertex 0 20 3
      vertex 0 20 6
    endloop
  endfacet
  facet normal -1 0 0
    outer loop
      vertex 0 18.5 6
      vertex 0 17.5 3
      vertex 0 17.5 6
    endloop
  endfacet
  facet normal -1 0 0
    outer loop
      vertex 0 16 6
      vertex 0 15 3
      vertex 0 15 6
    endloop
  endfacet
  facet normal -1 0 0
    outer loop
      vertex 0 13.5 6
      vertex 0 12.5 3
      vertex 0 12.5 6
    endloop
  endfacet
  facet normal -1 0 0
    outer loop
      vertex 0 11 6
      vertex 0 10 3
      vertex 0 10 6
    endloop
  endfacet
  facet normal -1 0 0
    outer loop
      vertex 0 8.5 6
      vertex 0 7.5 3
      vertex 0 7.5 6
    endloop
  endfacet
  facet normal -1 0 0
    outer loop
      vertex 0 6 6
      vertex 0 5 3
      vertex 0 5 6
    endloop
  endfacet
  facet normal -1 0 0
    outer loop
      vertex 0 3.5 6
      vertex 0 2.5 3
      vertex 0 2.5 6
    endloop
  endfacet
  facet normal -1 0 0
    outer loop
      vertex 0 1 6
      vertex 0 0 3
      vertex 0 0 6
    endloop
  endfacet
  facet normal 0 -1 0
    outer loop
      vertex 0 2.5 3
      vertex 203.1999969482422 2.5 6
      vertex 0 2.5 6
    endloop
  endfacet
  facet normal 0 -1 0
    outer loop
      vertex 203.1999969482422 2.5 6
      vertex 0 2.5 3
      vertex 203.1999969482422 2.5 3
    endloop
  endfacet
  facet normal 0 -1 0
    outer loop
      vertex 8 0 0
      vertex 195.1999969482422 0 3
      vertex 8 0 3
    endloop
  endfacet
  facet normal 0 -1 0
    outer loop
      vertex 195.1999969482422 0 3
      vertex 8 0 0
      vertex 195.1999969482422 0 0
    endloop
  endfacet
  facet normal 0 -1 0
    outer loop
      vertex 8 0 3
      vertex 0 0 6
      vertex 0 0 3
    endloop
  endfacet
  facet normal 0 -1 0
    outer loop
      vertex 0 0 6
      vertex 8 0 3
      vertex 203.1999969482422 0 6
    endloop
  endfacet
  facet normal 0 -1 0
    outer loop
      vertex 195.1999969482422 0 3
      vertex 203.1999969482422 0 6
      vertex 8 0 3
    endloop
  endfacet
  facet normal 0 -1 0
    outer loop
      vertex 203.1999969482422 0 6
      vertex 195.1999969482422 0 3
      vertex 203.1999969482422 0 3
    endloop
  endfacet
  facet normal 0 0 1
    outer loop
      vertex 0 1 6
      vertex 203.1999969482422 0 6
      vertex 203.1999969482422 1 6
    endloop
  endfacet
  facet normal 0 0 1
    outer loop
      vertex 203.1999969482422 0 6
      vertex 0 1 6
      vertex 0 0 6
    endloop
  endfacet
  facet normal 0 1 0
    outer loop
      vertex 203.1999969482422 1 3
      vertex 0 1 6
      vertex 203.1999969482422 1 6
    endloop
  endfacet
  facet normal 0 1 0
    outer loop
      vertex 0 1 6
      vertex 203.1999969482422 1 3
      vertex 0 1 3
    endloop
  endfacet
  facet normal 0 0 1
    outer loop
      vertex 0 3.5 6
      vertex 203.1999969482422 2.5 6
      vertex 203.1999969482422 3.5 6
    endloop
  endfacet
  facet normal 0 0 1
    outer loop
      vertex 203.1999969482422 2.5 6
      vertex 0 3.5 6
      vertex 0 2.5 6
    endloop
  endfacet
  facet normal 0 1 0
    outer loop
      vertex 203.1999969482422 3.5 3
      vertex 0 3.5 6
      vertex 203.1999969482422 3.5 6
    endloop
  endfacet
  facet normal 0 1 0
    outer loop
      vertex 0 3.5 6
      vertex 203.1999969482422 3.5 3
      vertex 0 3.5 3
    endloop
  endfacet
  facet normal 0 0 1
    outer loop
      vertex 0 5 3
      vertex 203.1999969482422 3.5 3
      vertex 203.1999969482422 5 3
    endloop
  endfacet
  facet normal 0 0 1
    outer loop
      vertex 203.1999969482422 3.5 3
      vertex 0 5 3
      vertex 0 3.5 3
    endloop
  endfacet
  facet normal 0 -1 0
    outer loop
      vertex 0 5 3
      vertex 203.1999969482422 5 6
      vertex 0 5 6
    endloop
  endfacet
  facet normal 0 -1 0
    outer loop
      vertex 203.1999969482422 5 6
      vertex 0 5 3
      vertex 203.1999969482422 5 3
    endloop
  endfacet
  facet normal 0 0 1
    outer loop
      vertex 0 6 6
      vertex 203.1999969482422 5 6
      vertex 203.1999969482422 6 6
    endloop
  endfacet
  facet normal 0 0 1
    outer loop
      vertex 203.1999969482422 5 6
      vertex 0 6 6
      vertex 0 5 6
    endloop
  endfacet
  facet normal 0 1 0
    outer loop
      vertex 203.1999969482422 6 3
      vertex 0 6 6
      vertex 203.1999969482422 6 6
    endloop
  endfacet
  facet normal 0 1 0
    outer loop
      vertex 0 6 6
      vertex 203.1999969482422 6 3
      vertex 0 6 3
    endloop
  endfacet
  facet normal 0 0 1
    outer loop
      vertex 0 7.5 3
      vertex 203.1999969482422 6 3
      vertex 203.1999969482422 7.5 3
    endloop
  endfacet
  facet normal 0 0 1
    outer loop
      vertex 203.1999969482422 6 3
      vertex 0 7.5 3
      vertex 0 6 3
    endloop
  endfacet
  facet normal 0 -1 0
    outer loop
      vertex 0 7.5 3
      vertex 203.1999969482422 7.5 6
      vertex 0 7.5 6
    endloop
  endfacet
  facet normal 0 -1 0
    outer loop
      vertex 203.1999969482422 7.5 6
      vertex 0 7.5 3
      vertex 203.1999969482422 7.5 3
    endloop
  endfacet
  facet normal 0 0 1
    outer loop
      vertex 0 8.5 6
      vertex 203.1999969482422 7.5 6
      vertex 203.1999969482422 8.5 6
    endloop
  endfacet
  facet normal 0 0 1
    outer loop
      vertex 203.1999969482422 7.5 6
      vertex 0 8.5 6
      vertex 0 7.5 6
    endloop
  endfacet
  facet normal 0 1 0
    outer loop
      vertex 203.1999969482422 8.5 3
      vertex 0 8.5 6
      vertex 203.1999969482422 8.5 6
    endloop
  endfacet
  facet normal 0 1 0
    outer loop
      vertex 0 8.5 6
      vertex 203.1999969482422 8.5 3
      vertex 0 8.5 3
    endloop
  endfacet
  facet normal 0 0 1
    outer loop
      vertex 0 10 3
      vertex 203.1999969482422 8.5 3
      vertex 203.1999969482422 10 3
    endloop
  endfacet
  facet normal 0 0 1
    outer loop
      vertex 203.1999969482422 8.5 3
      vertex 0 10 3
      vertex 0 8.5 3
    endloop
  endfacet
  facet normal 0 -1 0
    outer loop
      vertex 0 10 3
      vertex 203.1999969482422 10 6
      vertex 0 10 6
    endloop
  endfacet
  facet normal 0 -1 0
    outer loop
      vertex 203.1999969482422 10 6
      vertex 0 10 3
      vertex 203.1999969482422 10 3
    endloop
  endfacet
  facet normal 0 0 1
    outer loop
      vertex 0 11 6
      vertex 203.1999969482422 10 6
      vertex 203.1999969482422 11 6
    endloop
  endfacet
  facet normal 0 0 1
    outer loop
      vertex 203.1999969482422 10 6
      vertex 0 11 6
      vertex 0 10 6
    endloop
  endfacet
  facet normal 0 1 0
    outer loop
      vertex 203.1999969482422 11 3
      vertex 0 11 6
      vertex 203.1999969482422 11 6
    endloop
  endfacet
  facet normal 0 1 0
    outer loop
      vertex 0 11 6
      vertex 203.1999969482422 11 3
      vertex 0 11 3
    endloop
  endfacet
  facet normal 0 0 1
    outer loop
      vertex 0 12.5 3
      vertex 203.1999969482422 11 3
      vertex 203.1999969482422 12.5 3
    endloop
  endfacet
  facet normal 0 0 1
    outer loop
      vertex 203.1999969482422 11 3
      vertex 0 12.5 3
      vertex 0 11 3
    endloop
  endfacet
  facet normal 0 -1 0
    outer loop
      vertex 0 12.5 3
      vertex 203.1999969482422 12.5 6
      vertex 0 12.5 6
    endloop
  endfacet
  facet normal 0 -1 0
    outer loop
      vertex 203.1999969482422 12.5 6
      vertex 0 12.5 3
      vertex 203.1999969482422 12.5 3
    endloop
  endfacet
  facet normal 0 0 1
    outer loop
      vertex 0 13.5 6
      vertex 203.1999969482422 12.5 6
      vertex 203.1999969482422 13.5 6
    endloop
  endfacet
  facet normal 0 0 1
    outer loop
      vertex 203.1999969482422 12.5 6
      vertex 0 13.5 6
      vertex 0 12.5 6
    endloop
  endfacet
  facet normal 0 1 0
    outer loop
      vertex 203.1999969482422 13.5 3
      vertex 0 13.5 6
      vertex 203.1999969482422 13.5 6
    endloop
  endfacet
  facet normal 0 1 0
    outer loop
      vertex 0 13.5 6
      vertex 203.1999969482422 13.5 3
      vertex 0 13.5 3
    endloop
  endfacet
  facet normal 0 0 1
    outer loop
      vertex 0 15 3
      vertex 203.1999969482422 13.5 3
      vertex 203.1999969482422 15 3
    endloop
  endfacet
  facet normal 0 0 1
    outer loop
      vertex 203.1999969482422 13.5 3
      vertex 0 15 3
      vertex 0 13.5 3
    endloop
  endfacet
  facet normal 0 -1 0
    outer loop
      vertex 0 15 3
      vertex 203.1999969482422 15 6
      vertex 0 15 6
    endloop
  endfacet
  facet normal 0 -1 0
    outer loop
      vertex 203.1999969482422 15 6
      vertex 0 15 3
      vertex 203.1999969482422 15 3
    endloop
  endfacet
  facet normal 0 0 1
    outer loop
      vertex 0 16 6
      vertex 203.1999969482422 15 6
      vertex 203.1999969482422 16 6
    endloop
  endfacet
  facet normal 0 0 1
    outer loop
      vertex 203.1999969482422 15 6
      vertex 0 16 6
      vertex 0 15 6
    endloop
  endfacet
  facet normal 0 1 0
    outer loop
      vertex 203.1999969482422 16 3
      vertex 0 16 6
      vertex 203.1999969482422 16 6
    endloop
  endfacet
  facet normal 0 1 0
    outer loop
      vertex 0 16 6
      vertex 203.1999969482422 16 3
      vertex 0 16 3
    endloop
  endfacet
  facet normal 0 0 1
    outer loop
      vertex 0 17.5 3
      vertex 203.1999969482422 16 3
      vertex 203.1999969482422 17.5 3
    endloop
  endfacet
  facet normal 0 0 1
    outer loop
      vertex 203.1999969482422 16 3
      vertex 0 17.5 3
      vertex 0 16 3
    endloop
  endfacet
  facet normal 0 -1 0
    outer loop
      vertex 0 17.5 3
      vertex 203.1999969482422 17.5 6
      vertex 0 17.5 6
    endloop
  endfacet
  facet normal 0 -1 0
    outer loop
      vertex 203.1999969482422 17.5 6
      vertex 0 17.5 3
      vertex 203.1999969482422 17.5 3
    endloop
  endfacet
  facet normal 0 0 1
    outer loop
      vertex 0 18.5 6
      vertex 203.1999969482422 17.5 6
      vertex 203.1999969482422 18.5 6
    endloop
  endfacet
  facet normal 0 0 1
    outer loop
      vertex 203.1999969482422 17.5 6
      vertex 0 18.5 6
      vertex 0 17.5 6
    endloop
  endfacet
  facet normal 0 1 0
    outer loop
      vertex 203.1999969482422 18.5 3
      vertex 0 18.5 6
      vertex 203.1999969482422 18.5 6
    endloop
  endfacet
  facet normal 0 1 0
    outer loop
      vertex 0 18.5 6
      vertex 203.1999969482422 18.5 3
      vertex 0 18.5 3
    endloop
  endfacet
  facet normal 0 0 1
    outer loop
      vertex 0 20 3
      vertex 203.1999969482422 18.5 3
      vertex 203.1999969482422 20 3
    endloop
  endfacet
  facet normal 0 0 1
    outer loop
      vertex 203.1999969482422 18.5 3
      vertex 0 20 3
      vertex 0 18.5 3
    endloop
  endfacet
  facet normal 0 -1 0
    outer loop
      vertex 0 20 3
      vertex 203.1999969482422 20 6
      vertex 0 20 6
    endloop
  endfacet
  facet normal 0 -1 0
    outer loop
      vertex 203.1999969482422 20 6
      vertex 0 20 3
      vertex 203.1999969482422 20 3
    endloop
  endfacet
  facet normal 0 0 1
    outer loop
      vertex 0 21 6
      vertex 203.1999969482422 20 6
      vertex 203.1999969482422 21 6
    endloop
  endfacet
  facet normal 0 0 1
    outer loop
      vertex 203.1999969482422 20 6
      vertex 0 21 6
      vertex 0 20 6
    endloop
  endfacet
  facet normal 0 1 0
    outer loop
      vertex 203.1999969482422 21 3
      vertex 0 21 6
      vertex 203.1999969482422 21 6
    endloop
  endfacet
  facet normal 0 1 0
    outer loop
      vertex 0 21 6
      vertex 203.1999969482422 21 3
      vertex 0 21 3
    endloop
  endfacet
  facet normal 0 0 1
    outer loop
      vertex 0 22.5 3
      vertex 203.1999969482422 21 3
      vertex 203.1999969482422 22.5 3
    endloop
  endfacet
  facet normal 0 0 1
    outer loop
      vertex 203.1999969482422 21 3
      vertex 0 22.5 3
      vertex 0 21 3
    endloop
  endfacet
  facet normal 0 -1 0
    outer loop
      vertex 0 22.5 3
      vertex 203.1999969482422 22.5 6
      vertex 0 22.5 6
    endloop
  endfacet
  facet normal 0 -1 0
    outer loop
      vertex 203.1999969482422 22.5 6
      vertex 0 22.5 3
      vertex 203.1999969482422 22.5 3
    endloop
  endfacet
  facet normal 0 0 1
    outer loop
      vertex 0 23.5 6
      vertex 203.1999969482422 22.5 6
      vertex 203.1999969482422 23.5 6
    endloop
  endfacet
  facet normal 0 0 1
    outer loop
      vertex 203.1999969482422 22.5 6
      vertex 0 23.5 6
      vertex 0 22.5 6
    endloop
  endfacet
  facet normal 0 1 0
    outer loop
      vertex 203.1999969482422 23.5 3
      vertex 0 23.5 6
      vertex 203.1999969482422 23.5 6
    endloop
  endfacet
  facet normal 0 1 0
    outer loop
      vertex 0 23.5 6
      vertex 203.1999969482422 23.5 3
      vertex 0 23.5 3
    endloop
  endfacet
  facet normal 0 0 1
    outer loop
      vertex 0 25 3
      vertex 203.1999969482422 23.5 3
      vertex 203.1999969482422 25 3
    endloop
  endfacet
  facet normal 0 0 1
    outer loop
      vertex 203.1999969482422 23.5 3
      vertex 0 25 3
      vertex 0 23.5 3
    endloop
  endfacet
  facet normal 0 -1 0
    outer loop
      vertex 0 25 3
      vertex 203.1999969482422 25 6
      vertex 0 25 6
    endloop
  endfacet
  facet normal 0 -1 0
    outer loop
      vertex 203.1999969482422 25 6
      vertex 0 25 3
      vertex 203.1999969482422 25 3
    endloop
  endfacet
  facet normal 0 0 1
    outer loop
      vertex 0 26 6
      vertex 203.1999969482422 25 6
      vertex 203.1999969482422 26 6
    endloop
  endfacet
  facet normal 0 0 1
    outer loop
      vertex 203.1999969482422 25 6
      vertex 0 26 6
      vertex 0 25 6
    endloop
  endfacet
  facet normal 0 1 0
    outer loop
      vertex 203.1999969482422 26 3
      vertex 0 26 6
      vertex 203.1999969482422 26 6
    endloop
  endfacet
  facet normal 0 1 0
    outer loop
      vertex 0 26 6
      vertex 203.1999969482422 26 3
      vertex 0 26 3
    endloop
  endfacet
  facet normal 0 0 1
    outer loop
      vertex 0 27.5 3
      vertex 203.1999969482422 26 3
      vertex 203.1999969482422 27.5 3
    endloop
  endfacet
  facet normal 0 0 1
    outer loop
      vertex 203.1999969482422 26 3
      vertex 0 27.5 3
      vertex 0 26 3
    endloop
  endfacet
  facet normal 0 -1 0
    outer loop
      vertex 0 27.5 3
      vertex 203.1999969482422 27.5 6
      vertex 0 27.5 6
    endloop
  endfacet
  facet normal 0 -1 0
    outer loop
      vertex 203.1999969482422 27.5 6
      vertex 0 27.5 3
      vertex 203.1999969482422 27.5 3
    endloop
  endfacet
  facet normal 0 0 1
    outer loop
      vertex 0 28.5 6
      vertex 203.1999969482422 27.5 6
      vertex 203.1999969482422 28.5 6
    endloop
  endfacet
  facet normal 0 0 1
    outer loop
      vertex 203.1999969482422 27.5 6
      vertex 0 28.5 6
      vertex 0 27.5 6
    endloop
  endfacet
  facet normal 0 1 0
    outer loop
      vertex 203.1999969482422 28.5 3
      vertex 0 28.5 6
      vertex 203.1999969482422 28.5 6
    endloop
  endfacet
  facet normal 0 1 0
    outer loop
      vertex 0 28.5 6
      vertex 203.1999969482422 28.5 3
      vertex 0 28.5 3
    endloop
  endfacet
  facet normal 0 0 1
    outer loop
      vertex 0 30 3
      vertex 203.1999969482422 28.5 3
      vertex 203.1999969482422 30 3
    endloop
  endfacet
  facet normal 0 0 1
    outer loop
      vertex 203.1999969482422 28.5 3
      vertex 0 30 3
      vertex 0 28.5 3
    endloop
  endfacet
  facet normal 0 -1 0
    outer loop
      vertex 0 30 3
      vertex 203.1999969482422 30 6
      vertex 0 30 6
    endloop
  endfacet
  facet normal 0 -1 0
    outer loop
      vertex 203.1999969482422 30 6
      vertex 0 30 3
      vertex 203.1999969482422 30 3
    endloop
  endfacet
  facet normal 0 0 1
    outer loop
      vertex 0 31 6
      vertex 203.1999969482422 30 6
      vertex 203.1999969482422 31 6
    endloop
  endfacet
  facet normal 0 0 1
    outer loop
      vertex 203.1999969482422 30 6
      vertex 0 31 6
      vertex 0 30 6
    endloop
  endfacet
  facet normal 0 1 0
    outer loop
      vertex 203.1999969482422 31 3
      vertex 0 31 6
      vertex 203.1999969482422 31 6
    endloop
  endfacet
  facet normal 0 1 0
    outer loop
      vertex 0 31 6
      vertex 203.1999969482422 31 3
      vertex 0 31 3
    endloop
  endfacet
  facet normal 0 0 1
    outer loop
      vertex 0 32.5 3
      vertex 203.1999969482422 31 3
      vertex 203.1999969482422 32.5 3
    endloop
  endfacet
  facet normal 0 0 1
    outer loop
      vertex 203.1999969482422 31 3
      vertex 0 32.5 3
      vertex 0 31 3
    endloop
  endfacet
  facet normal 0 -1 0
    outer loop
      vertex 0 32.5 3
      vertex 203.1999969482422 32.5 6
      vertex 0 32.5 6
    endloop
  endfacet
  facet normal 0 -1 0
    outer loop
      vertex 203.1999969482422 32.5 6
      vertex 0 32.5 3
      vertex 203.1999969482422 32.5 3
    endloop
  endfacet
  facet normal 0 0 1
    outer loop
      vertex 0 33.5 6
      vertex 203.1999969482422 32.5 6
      vertex 203.1999969482422 33.5 6
    endloop
  endfacet
  facet normal 0 0 1
    outer loop
      vertex 203.1999969482422 32.5 6
      vertex 0 33.5 6
      vertex 0 32.5 6
    endloop
  endfacet
  facet normal 0 1 0
    outer loop
      vertex 203.1999969482422 33.5 3
      vertex 0 33.5 6
      vertex 203.1999969482422 33.5 6
    endloop
  endfacet
  facet normal 0 1 0
    outer loop
      vertex 0 33.5 6
      vertex 203.1999969482422 33.5 3
      vertex 0 33.5 3
    endloop
  endfacet
  facet normal 0 0 1
    outer loop
      vertex 0 35 3
      vertex 203.1999969482422 33.5 3
      vertex 203.1999969482422 35 3
    endloop
  endfacet
  facet normal 0 0 1
    outer loop
      vertex 203.1999969482422 33.5 3
      vertex 0 35 3
      vertex 0 33.5 3
    endloop
  endfacet
  facet normal 0 -1 0
    outer loop
      vertex 0 35 3
      vertex 203.1999969482422 35 6
      vertex 0 35 6
    endloop
  endfacet
  facet normal 0 -1 0
    outer loop
      vertex 203.1999969482422 35 6
      vertex 0 35 3
      vertex 203.1999969482422 35 3
    endloop
  endfacet
  facet normal 0 0 1
    outer loop
      vertex 0 36 6
      vertex 203.1999969482422 35 6
      vertex 203.1999969482422 36 6
    endloop
  endfacet
  facet normal 0 0 1
    outer loop
      vertex 203.1999969482422 35 6
      vertex 0 36 6
      vertex 0 35 6
    endloop
  endfacet
  facet normal 0 1 0
    outer loop
      vertex 203.1999969482422 36 3
      vertex 0 36 6
      vertex 203.1999969482422 36 6
    endloop
  endfacet
  facet normal 0 1 0
    outer loop
      vertex 0 36 6
      vertex 203.1999969482422 36 3
      vertex 0 36 3
    endloop
  endfacet
  facet normal 0 0 1
    outer loop
      vertex 0 37.5 3
      vertex 203.1999969482422 36 3
      vertex 203.1999969482422 37.5 3
    endloop
  endfacet
  facet normal 0 0 1
    outer loop
      vertex 203.1999969482422 36 3
      vertex 0 37.5 3
      vertex 0 36 3
    endloop
  endfacet
  facet normal 0 -1 0
    outer loop
      vertex 0 37.5 3
      vertex 203.1999969482422 37.5 6
      vertex 0 37.5 6
    endloop
  endfacet
  facet normal 0 -1 0
    outer loop
      vertex 203.1999969482422 37.5 6
      vertex 0 37.5 3
      vertex 203.1999969482422 37.5 3
    endloop
  endfacet
  facet normal 0 0 1
    outer loop
      vertex 0 38.5 6
      vertex 203.1999969482422 37.5 6
      vertex 203.1999969482422 38.5 6
    endloop
  endfacet
  facet normal 0 0 1
    outer loop
      vertex 203.1999969482422 37.5 6
      vertex 0 38.5 6
      vertex 0 37.5 6
    endloop
  endfacet
  facet normal 0 1 0
    outer loop
      vertex 203.1999969482422 38.5 3
      vertex 0 38.5 6
      vertex 203.1999969482422 38.5 6
    endloop
  endfacet
  facet normal 0 1 0
    outer loop
      vertex 0 38.5 6
      vertex 203.1999969482422 38.5 3
      vertex 0 38.5 3
    endloop
  endfacet
  facet normal 0 0 1
    outer loop
      vertex 0 40 3
      vertex 203.1999969482422 38.5 3
      vertex 203.1999969482422 40 3
    endloop
  endfacet
  facet normal 0 0 1
    outer loop
      vertex 203.1999969482422 38.5 3
      vertex 0 40 3
      vertex 0 38.5 3
    endloop
  endfacet
  facet normal 0 -1 0
    outer loop
      vertex 0 40 3
      vertex 203.1999969482422 40 6
      vertex 0 40 6
    endloop
  endfacet
  facet normal 0 -1 0
    outer loop
      vertex 203.1999969482422 40 6
      vertex 0 40 3
      vertex 203.1999969482422 40 3
    endloop
  endfacet
  facet normal 0 0 1
    outer loop
      vertex 0 41 6
      vertex 203.1999969482422 40 6
      vertex 203.1999969482422 41 6
    endloop
  endfacet
  facet normal 0 0 1
    outer loop
      vertex 203.1999969482422 40 6
      vertex 0 41 6
      vertex 0 40 6
    endloop
  endfacet
  facet normal 0 1 0
    outer loop
      vertex 203.1999969482422 41 3
      vertex 0 41 6
      vertex 203.1999969482422 41 6
    endloop
  endfacet
  facet normal 0 1 0
    outer loop
      vertex 0 41 6
      vertex 203.1999969482422 41 3
      vertex 0 41 3
    endloop
  endfacet
  facet normal 0 0 1
    outer loop
      vertex 0 42.5 3
      vertex 203.1999969482422 41 3
      vertex 203.1999969482422 42.5 3
    endloop
  endfacet
  facet normal 0 0 1
    outer loop
      vertex 203.1999969482422 41 3
      vertex 0 42.5 3
      vertex 0 41 3
    endloop
  endfacet
  facet normal 0 -1 0
    outer loop
      vertex 0 42.5 3
      vertex 203.1999969482422 42.5 6
      vertex 0 42.5 6
    endloop
  endfacet
  facet normal 0 -1 0
    outer loop
      vertex 203.1999969482422 42.5 6
      vertex 0 42.5 3
      vertex 203.1999969482422 42.5 3
    endloop
  endfacet
  facet normal 0 0 1
    outer loop
      vertex 0 43.5 6
      vertex 203.1999969482422 42.5 6
      vertex 203.1999969482422 43.5 6
    endloop
  endfacet
  facet normal 0 0 1
    outer loop
      vertex 203.1999969482422 42.5 6
      vertex 0 43.5 6
      vertex 0 42.5 6
    endloop
  endfacet
  facet normal 0 1 0
    outer loop
      vertex 203.1999969482422 43.5 3
      vertex 0 43.5 6
      vertex 203.1999969482422 43.5 6
    endloop
  endfacet
  facet normal 0 1 0
    outer loop
      vertex 0 43.5 6
      vertex 203.1999969482422 43.5 3
      vertex 0 43.5 3
    endloop
  endfacet
  facet normal 0 0 1
    outer loop
      vertex 0 45 3
      vertex 203.1999969482422 43.5 3
      vertex 203.1999969482422 45 3
    endloop
  endfacet
  facet normal 0 0 1
    outer loop
      vertex 203.1999969482422 43.5 3
      vertex 0 45 3
      vertex 0 43.5 3
    endloop
  endfacet
  facet normal 0 -1 0
    outer loop
      vertex 0 45 3
      vertex 203.1999969482422 45 6
      vertex 0 45 6
    endloop
  endfacet
  facet normal 0 -1 0
    outer loop
      vertex 203.1999969482422 45 6
      vertex 0 45 3
      vertex 203.1999969482422 45 3
    endloop
  endfacet
  facet normal 0 0 1
    outer loop
      vertex 0 46 6
      vertex 203.1999969482422 45 6
      vertex 203.1999969482422 46 6
    endloop
  endfacet
  facet normal 0 0 1
    outer loop
      vertex 203.1999969482422 45 6
      vertex 0 46 6
      vertex 0 45 6
    endloop
  endfacet
  facet normal 0 1 0
    outer loop
      vertex 203.1999969482422 46 3
      vertex 0 46 6
      vertex 203.1999969482422 46 6
    endloop
  endfacet
  facet normal 0 1 0
    outer loop
      vertex 0 46 6
      vertex 203.1999969482422 46 3
      vertex 0 46 3
    endloop
  endfacet
  facet normal 0 0 1
    outer loop
      vertex 0 47.5 3
      vertex 203.1999969482422 46 3
      vertex 203.1999969482422 47.5 3
    endloop
  endfacet
  facet normal 0 0 1
    outer loop
      vertex 203.1999969482422 46 3
      vertex 0 47.5 3
      vertex 0 46 3
    endloop
  endfacet
  facet normal 0 -1 0
    outer loop
      vertex 0 47.5 3
      vertex 203.1999969482422 47.5 6
      vertex 0 47.5 6
    endloop
  endfacet
  facet normal 0 -1 0
    outer loop
      vertex 203.1999969482422 47.5 6
      vertex 0 47.5 3
      vertex 203.1999969482422 47.5 3
    endloop
  endfacet
  facet normal 0 0 1
    outer loop
      vertex 0 48.5 6
      vertex 203.1999969482422 47.5 6
      vertex 203.1999969482422 48.5 6
    endloop
  endfacet
  facet normal 0 0 1
    outer loop
      vertex 203.1999969482422 47.5 6
      vertex 0 48.5 6
      vertex 0 47.5 6
    endloop
  endfacet
  facet normal 0 1 0
    outer loop
      vertex 203.1999969482422 48.5 3
      vertex 0 48.5 6
      vertex 203.1999969482422 48.5 6
    endloop
  endfacet
  facet normal 0 1 0
    outer loop
      vertex 0 48.5 6
      vertex 203.1999969482422 48.5 3
      vertex 0 48.5 3
    endloop
  endfacet
  facet normal 0 0 1
    outer loop
      vertex 0 50 3
      vertex 203.1999969482422 48.5 3
      vertex 203.1999969482422 50 3
    endloop
  endfacet
  facet normal 0 0 1
    outer loop
      vertex 203.1999969482422 48.5 3
      vertex 0 50 3
      vertex 0 48.5 3
    endloop
  endfacet
  facet normal 0 -1 0
    outer loop
      vertex 0 50 3
      vertex 203.1999969482422 50 6
      vertex 0 50 6
    endloop
  endfacet
  facet normal 0 -1 0
    outer loop
      vertex 203.1999969482422 50 6
      vertex 0 50 3
      vertex 203.1999969482422 50 3
    endloop
  endfacet
  facet normal 0 0 1
    outer loop
      vertex 0 51 6
      vertex 203.1999969482422 50 6
      vertex 203.1999969482422 51 6
    endloop
  endfacet
  facet normal 0 0 1
    outer loop
      vertex 203.1999969482422 50 6
      vertex 0 51 6
      vertex 0 50 6
    endloop
  endfacet
  facet normal 0 1 0
    outer loop
      vertex 203.1999969482422 51 3
      vertex 0 51 6
      vertex 203.1999969482422 51 6
    endloop
  endfacet
  facet normal 0 1 0
    outer loop
      vertex 0 51 6
      vertex 203.1999969482422 51 3
      vertex 0 51 3
    endloop
  endfacet
  facet normal 0 0 1
    outer loop
      vertex 0 52.5 3
      vertex 203.1999969482422 51 3
      vertex 203.1999969482422 52.5 3
    endloop
  endfacet
  facet normal 0 0 1
    outer loop
      vertex 203.1999969482422 51 3
      vertex 0 52.5 3
      vertex 0 51 3
    endloop
  endfacet
  facet normal 0 -1 0
    outer loop
      vertex 0 52.5 3
      vertex 203.1999969482422 52.5 6
      vertex 0 52.5 6
    endloop
  endfacet
  facet normal 0 -1 0
    outer loop
      vertex 203.1999969482422 52.5 6
      vertex 0 52.5 3
      vertex 203.1999969482422 52.5 3
    endloop
  endfacet
  facet normal 0 0 1
    outer loop
      vertex 0 53.5 6
      vertex 203.1999969482422 52.5 6
      vertex 203.1999969482422 53.5 6
    endloop
  endfacet
  facet normal 0 0 1
    outer loop
      vertex 203.1999969482422 52.5 6
      vertex 0 53.5 6
      vertex 0 52.5 6
    endloop
  endfacet
  facet normal 0 1 0
    outer loop
      vertex 203.1999969482422 53.5 3
      vertex 0 53.5 6
      vertex 203.1999969482422 53.5 6
    endloop
  endfacet
  facet normal 0 1 0
    outer loop
      vertex 0 53.5 6
      vertex 203.1999969482422 53.5 3
      vertex 0 53.5 3
    endloop
  endfacet
  facet normal 0 0 1
    outer loop
      vertex 0 55 3
      vertex 203.1999969482422 53.5 3
      vertex 203.1999969482422 55 3
    endloop
  endfacet
  facet normal 0 0 1
    outer loop
      vertex 203.1999969482422 53.5 3
      vertex 0 55 3
      vertex 0 53.5 3
    endloop
  endfacet
  facet normal 0 -1 0
    outer loop
      vertex 0 55 3
      vertex 203.1999969482422 55 6
      vertex 0 55 6
    endloop
  endfacet
  facet normal 0 -1 0
    outer loop
      vertex 203.1999969482422 55 6
      vertex 0 55 3
      vertex 203.1999969482422 55 3
    endloop
  endfacet
  facet normal 0 0 1
    outer loop
      vertex 0 56 6
      vertex 203.1999969482422 55 6
      vertex 203.1999969482422 56 6
    endloop
  endfacet
  facet normal 0 0 1
    outer loop
      vertex 203.1999969482422 55 6
      vertex 0 56 6
      vertex 0 55 6
    endloop
  endfacet
  facet normal 0 1 0
    outer loop
      vertex 203.1999969482422 56 3
      vertex 0 56 6
      vertex 203.1999969482422 56 6
    endloop
  endfacet
  facet normal 0 1 0
    outer loop
      vertex 0 56 6
      vertex 203.1999969482422 56 3
      vertex 0 56 3
    endloop
  endfacet
  facet normal 0 0 1
    outer loop
      vertex 0 57.5 3
      vertex 203.1999969482422 56 3
      vertex 203.1999969482422 57.5 3
    endloop
  endfacet
  facet normal 0 0 1
    outer loop
      vertex 203.1999969482422 56 3
      vertex 0 57.5 3
      vertex 0 56 3
    endloop
  endfacet
  facet normal 0 -1 0
    outer loop
      vertex 0 57.5 3
      vertex 203.1999969482422 57.5 6
      vertex 0 57.5 6
    endloop
  endfacet
  facet normal 0 -1 0
    outer loop
      vertex 203.1999969482422 57.5 6
      vertex 0 57.5 3
      vertex 203.1999969482422 57.5 3
    endloop
  endfacet
  facet normal 0 0 1
    outer loop
      vertex 0 58.5 6
      vertex 203.1999969482422 57.5 6
      vertex 203.1999969482422 58.5 6
    endloop
  endfacet
  facet normal 0 0 1
    outer loop
      vertex 203.1999969482422 57.5 6
      vertex 0 58.5 6
      vertex 0 57.5 6
    endloop
  endfacet
  facet normal 0 1 0
    outer loop
      vertex 203.1999969482422 58.5 3
      vertex 0 58.5 6
      vertex 203.1999969482422 58.5 6
    endloop
  endfacet
  facet normal 0 1 0
    outer loop
      vertex 0 58.5 6
      vertex 203.1999969482422 58.5 3
      vertex 0 58.5 3
    endloop
  endfacet
  facet normal 0 0 1
    outer loop
      vertex 0 60 3
      vertex 203.1999969482422 58.5 3
      vertex 203.1999969482422 60 3
    endloop
  endfacet
  facet normal 0 0 1
    outer loop
      vertex 203.1999969482422 58.5 3
      vertex 0 60 3
      vertex 0 58.5 3
    endloop
  endfacet
  facet normal 0 -1 0
    outer loop
      vertex 0 60 3
      vertex 203.1999969482422 60 6
      vertex 0 60 6
    endloop
  endfacet
  facet normal 0 -1 0
    outer loop
      vertex 203.1999969482422 60 6
      vertex 0 60 3
      vertex 203.1999969482422 60 3
    endloop
  endfacet
  facet normal 0 0 1
    outer loop
      vertex 0 61 6
      vertex 203.1999969482422 60 6
      vertex 203.1999969482422 61 6
    endloop
  endfacet
  facet normal 0 0 1
    outer loop
      vertex 203.1999969482422 60 6
      vertex 0 61 6
      vertex 0 60 6
    endloop
  endfacet
  facet normal 0 1 0
    outer loop
      vertex 203.1999969482422 61 3
      vertex 0 61 6
      vertex 203.1999969482422 61 6
    endloop
  endfacet
  facet normal 0 1 0
    outer loop
      vertex 0 61 6
      vertex 203.1999969482422 61 3
      vertex 0 61 3
    endloop
  endfacet
  facet normal 0 0 1
    outer loop
      vertex 0 62.5 3
      vertex 203.1999969482422 61 3
      vertex 203.1999969482422 62.5 3
    endloop
  endfacet
  facet normal 0 0 1
    outer loop
      vertex 203.1999969482422 61 3
      vertex 0 62.5 3
      vertex 0 61 3
    endloop
  endfacet
  facet normal 0 -1 0
    outer loop
      vertex 0 62.5 3
      vertex 203.1999969482422 62.5 6
      vertex 0 62.5 6
    endloop
  endfacet
  facet normal 0 -1 0
    outer loop
      vertex 203.1999969482422 62.5 6
      vertex 0 62.5 3
      vertex 203.1999969482422 62.5 3
    endloop
  endfacet
  facet normal 0 0 1
    outer loop
      vertex 0 63.5 6
      vertex 203.1999969482422 62.5 6
      vertex 203.1999969482422 63.5 6
    endloop
  endfacet
  facet normal 0 0 1
    outer loop
      vertex 203.1999969482422 62.5 6
      vertex 0 63.5 6
      vertex 0 62.5 6
    endloop
  endfacet
  facet normal 0 1 0
    outer loop
      vertex 195.1999969482422 63.5 0
      vertex 8 63.5 3
      vertex 195.1999969482422 63.5 3
    endloop
  endfacet
  facet normal 0 1 0
    outer loop
      vertex 8 63.5 3
      vertex 195.1999969482422 63.5 0
      vertex 8 63.5 0
    endloop
  endfacet
  facet normal 0 1 0
    outer loop
      vertex 195.1999969482422 63.5 3
      vertex 203.1999969482422 63.5 6
      vertex 203.1999969482422 63.5 3
    endloop
  endfacet
  facet normal 0 1 0
    outer loop
      vertex 203.1999969482422 63.5 6
      vertex 195.1999969482422 63.5 3
      vertex 0 63.5 6
    endloop
  endfacet
  facet normal 0 1 0
    outer loop
      vertex 8 63.5 3
      vertex 0 63.5 6
      vertex 195.1999969482422 63.5 3
    endloop
  endfacet
  facet normal 0 1 0
    outer loop
      vertex 0 63.5 6
      vertex 8 63.5 3
      vertex 0 63.5 3
    endloop
  endfacet
  facet normal 1 0 0
    outer loop
      vertex 8 -5 3
      vertex 8 0 0
      vertex 8 0 3
    endloop
  endfacet
  facet normal 1 0 0
    outer loop
      vertex 8 0 0
      vertex 8 -5 3
      vertex 8 -5 0
    endloop
  endfacet
  facet normal 0 0 1
    outer loop
      vertex 0 0 3
      vertex 8 -5 3
      vertex 8 0 3
    endloop
  endfacet
  facet normal 0 0 1
    outer loop
      vertex 8 -5 3
      vertex 0 0 3
      vertex 0 -5 3
    endloop
  endfacet
  facet normal 0 -1 0
    outer loop
      vertex 0 -5 0
      vertex 8 -5 3
      vertex 0 -5 3
    endloop
  endfacet
  facet normal 0 -1 0
    outer loop
      vertex 8 -5 3
      vertex 0 -5 0
      vertex 8 -5 0
    endloop
  endfacet
  facet normal 0 0 1
    outer loop
      vertex 195.1999969482422 0 3
      vertex 203.1999969482422 -5 3
      vertex 203.1999969482422 0 3
    endloop
  endfacet
  facet normal 0 0 1
    outer loop
      vertex 203.1999969482422 -5 3
      vertex 195.1999969482422 0 3
      vertex 195.1999969482422 -5 3
    endloop
  endfacet
  facet normal -1 0 0
    outer loop
      vertex 195.1999969482422 -5 0
      vertex 195.1999969482422 0 3
      vertex 195.1999969482422 0 0
    endloop
  endfacet
  facet normal -1 0 0
    outer loop
      vertex 195.1999969482422 0 3
      vertex 195.1999969482422 -5 0
      vertex 195.1999969482422 -5 3
    endloop
  endfacet
  facet normal 0 -1 0
    outer loop
      vertex 195.1999969482422 -5 0
      vertex 203.1999969482422 -5 3
      vertex 195.1999969482422 -5 3
    endloop
  endfacet
  facet normal 0 -1 0
    outer loop
      vertex 203.1999969482422 -5 3
      vertex 195.1999969482422 -5 0
      vertex 203.1999969482422 -5 0
    endloop
  endfacet
  facet normal 1 0 0
    outer loop
      vertex 8 63.5 3
      vertex 8 67.5 0
      vertex 8 67.5 3
    endloop
  endfacet
  facet normal 1 0 0
    outer loop
      vertex 8 67.5 0
      vertex 8 63.5 3
      vertex 8 63.5 0
    endloop
  endfacet
  facet normal 0 0 1
    outer loop
      vertex 0 67.5 3
      vertex 8 63.5 3
      vertex 8 67.5 3
    endloop
  endfacet
  facet normal 0 0 1
    outer loop
      vertex 8 63.5 3
      vertex 0 67.5 3
      vertex 0 63.5 3
    endloop
  endfacet
  facet normal 0 1 0
    outer loop
      vertex 8 67.5 0
      vertex 0 67.5 3
      vertex 8 67.5 3
    endloop
  endfacet
  facet normal 0 1 0
    outer loop
      vertex 0 67.5 3
      vertex 8 67.5 0
      vertex 0 67.5 0
    endloop
  endfacet
  facet normal 0 0 1
    outer loop
      vertex 195.1999969482422 67.5 3
      vertex 203.1999969482422 63.5 3
      vertex 203.1999969482422 67.5 3
    endloop
  endfacet
  facet normal 0 0 1
    outer loop
      vertex 203.1999969482422 63.5 3
      vertex 195.1999969482422 67.5 3
      vertex 195.1999969482422 63.5 3
    endloop
  endfacet
  facet normal -1 0 0
    outer loop
      vertex 195.1999969482422 63.5 0
      vertex 195.1999969482422 67.5 3
      vertex 195.1999969482422 67.5 0
    endloop
  endfacet
  facet normal -1 0 0
    outer loop
      vertex 195.1999969482422 67.5 3
      vertex 195.1999969482422 63.5 0
      vertex 195.1999969482422 63.5 3
    endloop
  endfacet
  facet normal 0 1 0
    outer loop
      vertex 203.1999969482422 67.5 0
      vertex 195.1999969482422 67.5 3
      vertex 203.1999969482422 67.5 3
    endloop
  endfacet
  facet normal 0 1 0
    outer loop
      vertex 195.1999969482422 67.5 3
      vertex 203.1999969482422 67.5 0
      vertex 195.1999969482422 67.5 0
    endloop
  endfacet
endsolid OpenSCAD_Model
